G75*
G70*
%OFA0B0*%
%FSLAX24Y24*%
%IPPOS*%
%LPD*%
%AMOC8*
5,1,8,0,0,1.08239X$1,22.5*
%
%ADD10C,0.0001*%
%ADD11C,0.0110*%
%ADD12OC8,0.0560*%
%ADD13R,0.0257X0.0512*%
%ADD14R,0.0355X0.0512*%
%ADD15R,0.0512X0.0355*%
%ADD16R,0.0434X0.0749*%
%ADD17R,0.0434X0.1851*%
%ADD18R,0.0670X0.1379*%
%ADD19R,0.0473X0.0591*%
%ADD20R,0.0394X0.0355*%
%ADD21R,0.0591X0.0473*%
%ADD22C,0.0041*%
%ADD23R,0.0276X0.0906*%
%ADD24C,0.0000*%
%ADD25C,0.0394*%
%ADD26R,0.0631X0.0237*%
%ADD27R,0.0237X0.0631*%
%ADD28R,0.0178X0.0591*%
%ADD29R,0.0749X0.0788*%
%ADD30R,0.0394X0.0709*%
%ADD31C,0.0434*%
%ADD32R,0.0750X0.1150*%
D10*
X001323Y000141D02*
X032622Y000141D01*
X032688Y000143D01*
X032754Y000148D01*
X032820Y000158D01*
X032885Y000171D01*
X032949Y000187D01*
X033012Y000207D01*
X033074Y000231D01*
X033134Y000258D01*
X033193Y000288D01*
X033250Y000322D01*
X033305Y000359D01*
X033358Y000399D01*
X033409Y000441D01*
X033457Y000487D01*
X033503Y000535D01*
X033545Y000586D01*
X033585Y000639D01*
X033622Y000694D01*
X033656Y000751D01*
X033686Y000810D01*
X033713Y000870D01*
X033737Y000932D01*
X033757Y000995D01*
X033773Y001059D01*
X033786Y001124D01*
X033796Y001190D01*
X033801Y001256D01*
X033803Y001322D01*
X033803Y020220D01*
X033801Y020286D01*
X033796Y020352D01*
X033786Y020418D01*
X033773Y020483D01*
X033757Y020547D01*
X033737Y020610D01*
X033713Y020672D01*
X033686Y020732D01*
X033656Y020791D01*
X033622Y020848D01*
X033585Y020903D01*
X033545Y020956D01*
X033503Y021007D01*
X033457Y021055D01*
X033409Y021101D01*
X033358Y021143D01*
X033305Y021183D01*
X033250Y021220D01*
X033193Y021254D01*
X033134Y021284D01*
X033074Y021311D01*
X033012Y021335D01*
X032949Y021355D01*
X032885Y021371D01*
X032820Y021384D01*
X032754Y021394D01*
X032688Y021399D01*
X032622Y021401D01*
X001323Y021401D01*
X001257Y021399D01*
X001191Y021394D01*
X001125Y021384D01*
X001060Y021371D01*
X000996Y021355D01*
X000933Y021335D01*
X000871Y021311D01*
X000811Y021284D01*
X000752Y021254D01*
X000695Y021220D01*
X000640Y021183D01*
X000587Y021143D01*
X000536Y021101D01*
X000488Y021055D01*
X000442Y021007D01*
X000400Y020956D01*
X000360Y020903D01*
X000323Y020848D01*
X000289Y020791D01*
X000259Y020732D01*
X000232Y020672D01*
X000208Y020610D01*
X000188Y020547D01*
X000172Y020483D01*
X000159Y020418D01*
X000149Y020352D01*
X000144Y020286D01*
X000142Y020220D01*
X000142Y001322D01*
X000144Y001256D01*
X000149Y001190D01*
X000159Y001124D01*
X000172Y001059D01*
X000188Y000995D01*
X000208Y000932D01*
X000232Y000870D01*
X000259Y000810D01*
X000289Y000751D01*
X000323Y000694D01*
X000360Y000639D01*
X000400Y000586D01*
X000442Y000535D01*
X000488Y000487D01*
X000536Y000441D01*
X000587Y000399D01*
X000640Y000359D01*
X000695Y000322D01*
X000752Y000288D01*
X000811Y000258D01*
X000871Y000231D01*
X000933Y000207D01*
X000996Y000187D01*
X001060Y000171D01*
X001125Y000158D01*
X001191Y000148D01*
X001257Y000143D01*
X001323Y000141D01*
D11*
X032837Y009259D02*
X032936Y009259D01*
X033132Y009259D02*
X033526Y009259D01*
X033526Y009161D02*
X033526Y009357D01*
X033526Y009590D02*
X033132Y009590D01*
X033132Y009689D01*
X033231Y009787D01*
X033132Y009886D01*
X033231Y009984D01*
X033526Y009984D01*
X033526Y009787D02*
X033231Y009787D01*
X033034Y010235D02*
X033428Y010235D01*
X033526Y010333D01*
X033526Y010530D01*
X033428Y010629D01*
X033428Y010879D02*
X033329Y010978D01*
X033329Y011273D01*
X033231Y011273D02*
X033526Y011273D01*
X033526Y010978D01*
X033428Y010879D01*
X033132Y010978D02*
X033132Y011175D01*
X033231Y011273D01*
X033329Y011524D02*
X033132Y011721D01*
X033132Y011819D01*
X033231Y012061D02*
X033132Y012159D01*
X033132Y012455D01*
X032936Y012455D02*
X033526Y012455D01*
X033526Y012159D01*
X033428Y012061D01*
X033231Y012061D01*
X033132Y011524D02*
X033526Y011524D01*
X033034Y010629D02*
X032936Y010530D01*
X032936Y010333D01*
X033034Y010235D01*
X033132Y009259D02*
X033132Y009161D01*
X032936Y008910D02*
X033329Y008516D01*
X033231Y008614D02*
X033526Y008910D01*
X033526Y008516D02*
X032936Y008516D01*
X033132Y013995D02*
X033526Y013995D01*
X033329Y013995D02*
X033132Y014191D01*
X033132Y014290D01*
X033034Y014532D02*
X032936Y014630D01*
X032936Y014827D01*
X033034Y014925D01*
X033132Y014925D01*
X033526Y014532D01*
X033526Y014925D01*
D12*
X003803Y014891D03*
X002803Y015391D03*
X001803Y015391D03*
X000803Y014891D03*
X000803Y015891D03*
X001803Y016391D03*
X002803Y016391D03*
X003803Y015891D03*
X003803Y016891D03*
X003803Y018141D03*
X002803Y018641D03*
X001803Y018641D03*
X000803Y018141D03*
X000803Y019141D03*
X001803Y019641D03*
X002803Y019641D03*
X003803Y019141D03*
X003803Y020141D03*
X000803Y020141D03*
X000803Y016891D03*
X000803Y013641D03*
X001803Y013141D03*
X002803Y013141D03*
X003803Y012641D03*
X002803Y012141D03*
X001803Y012141D03*
X000803Y011641D03*
X000803Y012641D03*
X003803Y011641D03*
X003803Y010391D03*
X002803Y009891D03*
X001803Y009891D03*
X000803Y009391D03*
X001803Y008891D03*
X002803Y008891D03*
X003803Y008391D03*
X003803Y009391D03*
X000803Y008391D03*
X000803Y006641D03*
X001803Y006141D03*
X002803Y006141D03*
X003803Y005641D03*
X002803Y005141D03*
X001803Y005141D03*
X000803Y004641D03*
X000803Y005641D03*
X003803Y004641D03*
X003803Y003391D03*
X002803Y002891D03*
X001803Y002891D03*
X000803Y002391D03*
X001803Y001891D03*
X002803Y001891D03*
X003803Y001391D03*
X003803Y002391D03*
X000803Y001391D03*
X000803Y003391D03*
X003803Y006641D03*
X000803Y010391D03*
X003803Y013641D03*
D13*
X021748Y016216D03*
X022496Y016216D03*
X022496Y017240D03*
X022122Y017240D03*
X021748Y017240D03*
X025687Y015213D03*
X026435Y015213D03*
X026435Y014189D03*
X026061Y014189D03*
X025687Y014189D03*
D14*
X025215Y013581D03*
X024507Y013581D03*
X026747Y012461D03*
X027455Y012461D03*
X027455Y011421D03*
X026747Y011421D03*
X024255Y010141D03*
X023547Y010141D03*
X026907Y007981D03*
X027615Y007981D03*
X027597Y008933D03*
X028306Y008933D03*
X020595Y006041D03*
X019887Y006041D03*
X022127Y018131D03*
X022835Y018131D03*
D15*
X023291Y016875D03*
X023291Y016167D03*
X025101Y015055D03*
X025101Y014347D03*
X024461Y003855D03*
X024461Y003147D03*
D16*
X022492Y015141D03*
X021390Y015141D03*
D17*
X019740Y019573D03*
X018953Y019573D03*
D18*
X018008Y017526D03*
X020685Y017526D03*
D19*
X021547Y014141D03*
X022335Y014141D03*
X027747Y014221D03*
X028535Y014221D03*
X028535Y015501D03*
X027747Y015501D03*
X020315Y008021D03*
X019527Y008021D03*
X019847Y005141D03*
X020635Y005141D03*
X002447Y003891D03*
X001659Y003891D03*
X001659Y000891D03*
X002447Y000891D03*
X002447Y007391D03*
X001659Y007391D03*
X001659Y010891D03*
X002447Y010891D03*
X002447Y014141D03*
X001659Y014141D03*
X001659Y017391D03*
X002447Y017391D03*
X002447Y020641D03*
X001659Y020641D03*
X004535Y020704D03*
X005322Y020704D03*
D20*
X005447Y019515D03*
X004620Y019141D03*
X005447Y018767D03*
X005447Y016265D03*
X004620Y015891D03*
X005447Y015517D03*
X005447Y013015D03*
X004620Y012641D03*
X005447Y012267D03*
X005447Y009765D03*
X004620Y009391D03*
X005447Y009017D03*
X005447Y006015D03*
X005447Y005267D03*
X004620Y005641D03*
X005447Y002765D03*
X005447Y002017D03*
X004620Y002391D03*
D21*
X004854Y001410D03*
X004854Y000622D03*
X004979Y003747D03*
X004979Y004535D03*
X004979Y007247D03*
X004979Y008035D03*
X004979Y010747D03*
X004979Y011535D03*
X004979Y013997D03*
X004979Y014785D03*
X004979Y017247D03*
X004979Y018035D03*
D22*
X022301Y012825D02*
X022301Y012039D01*
X022301Y012825D02*
X023325Y012825D01*
X023325Y012039D01*
X022301Y012039D01*
X022301Y012079D02*
X023325Y012079D01*
X023325Y012119D02*
X022301Y012119D01*
X022301Y012159D02*
X023325Y012159D01*
X023325Y012199D02*
X022301Y012199D01*
X022301Y012239D02*
X023325Y012239D01*
X023325Y012279D02*
X022301Y012279D01*
X022301Y012319D02*
X023325Y012319D01*
X023325Y012359D02*
X022301Y012359D01*
X022301Y012399D02*
X023325Y012399D01*
X023325Y012439D02*
X022301Y012439D01*
X022301Y012479D02*
X023325Y012479D01*
X023325Y012519D02*
X022301Y012519D01*
X022301Y012559D02*
X023325Y012559D01*
X023325Y012599D02*
X022301Y012599D01*
X022301Y012639D02*
X023325Y012639D01*
X023325Y012679D02*
X022301Y012679D01*
X022301Y012719D02*
X023325Y012719D01*
X023325Y012759D02*
X022301Y012759D01*
X022301Y012799D02*
X023325Y012799D01*
X024938Y012825D02*
X024938Y012039D01*
X024938Y012825D02*
X025962Y012825D01*
X025962Y012039D01*
X024938Y012039D01*
X024938Y012079D02*
X025962Y012079D01*
X025962Y012119D02*
X024938Y012119D01*
X024938Y012159D02*
X025962Y012159D01*
X025962Y012199D02*
X024938Y012199D01*
X024938Y012239D02*
X025962Y012239D01*
X025962Y012279D02*
X024938Y012279D01*
X024938Y012319D02*
X025962Y012319D01*
X025962Y012359D02*
X024938Y012359D01*
X024938Y012399D02*
X025962Y012399D01*
X025962Y012439D02*
X024938Y012439D01*
X024938Y012479D02*
X025962Y012479D01*
X025962Y012519D02*
X024938Y012519D01*
X024938Y012559D02*
X025962Y012559D01*
X025962Y012599D02*
X024938Y012599D01*
X024938Y012639D02*
X025962Y012639D01*
X025962Y012679D02*
X024938Y012679D01*
X024938Y012719D02*
X025962Y012719D01*
X025962Y012759D02*
X024938Y012759D01*
X024938Y012799D02*
X025962Y012799D01*
X024938Y011604D02*
X024938Y010818D01*
X024938Y011604D02*
X025962Y011604D01*
X025962Y010818D01*
X024938Y010818D01*
X024938Y010858D02*
X025962Y010858D01*
X025962Y010898D02*
X024938Y010898D01*
X024938Y010938D02*
X025962Y010938D01*
X025962Y010978D02*
X024938Y010978D01*
X024938Y011018D02*
X025962Y011018D01*
X025962Y011058D02*
X024938Y011058D01*
X024938Y011098D02*
X025962Y011098D01*
X025962Y011138D02*
X024938Y011138D01*
X024938Y011178D02*
X025962Y011178D01*
X025962Y011218D02*
X024938Y011218D01*
X024938Y011258D02*
X025962Y011258D01*
X025962Y011298D02*
X024938Y011298D01*
X024938Y011338D02*
X025962Y011338D01*
X025962Y011378D02*
X024938Y011378D01*
X024938Y011418D02*
X025962Y011418D01*
X025962Y011458D02*
X024938Y011458D01*
X024938Y011498D02*
X025962Y011498D01*
X025962Y011538D02*
X024938Y011538D01*
X024938Y011578D02*
X025962Y011578D01*
X022301Y011604D02*
X022301Y010818D01*
X022301Y011604D02*
X023325Y011604D01*
X023325Y010818D01*
X022301Y010818D01*
X022301Y010858D02*
X023325Y010858D01*
X023325Y010898D02*
X022301Y010898D01*
X022301Y010938D02*
X023325Y010938D01*
X023325Y010978D02*
X022301Y010978D01*
X022301Y011018D02*
X023325Y011018D01*
X023325Y011058D02*
X022301Y011058D01*
X022301Y011098D02*
X023325Y011098D01*
X023325Y011138D02*
X022301Y011138D01*
X022301Y011178D02*
X023325Y011178D01*
X023325Y011218D02*
X022301Y011218D01*
X022301Y011258D02*
X023325Y011258D01*
X023325Y011298D02*
X022301Y011298D01*
X022301Y011338D02*
X023325Y011338D01*
X023325Y011378D02*
X022301Y011378D01*
X022301Y011418D02*
X023325Y011418D01*
X023325Y011458D02*
X022301Y011458D01*
X022301Y011498D02*
X023325Y011498D01*
X023325Y011538D02*
X022301Y011538D01*
X022301Y011578D02*
X023325Y011578D01*
D23*
X029311Y009085D03*
X029811Y009085D03*
X030311Y009085D03*
X030811Y009085D03*
X030811Y007037D03*
X030311Y007037D03*
X029811Y007037D03*
X029311Y007037D03*
D24*
X027204Y018621D02*
X027206Y018648D01*
X027212Y018675D01*
X027221Y018701D01*
X027234Y018725D01*
X027250Y018748D01*
X027269Y018767D01*
X027291Y018784D01*
X027315Y018798D01*
X027340Y018808D01*
X027367Y018815D01*
X027394Y018818D01*
X027422Y018817D01*
X027449Y018812D01*
X027475Y018804D01*
X027499Y018792D01*
X027522Y018776D01*
X027543Y018758D01*
X027560Y018737D01*
X027575Y018713D01*
X027586Y018688D01*
X027594Y018662D01*
X027598Y018635D01*
X027598Y018607D01*
X027594Y018580D01*
X027586Y018554D01*
X027575Y018529D01*
X027560Y018505D01*
X027543Y018484D01*
X027522Y018466D01*
X027500Y018450D01*
X027475Y018438D01*
X027449Y018430D01*
X027422Y018425D01*
X027394Y018424D01*
X027367Y018427D01*
X027340Y018434D01*
X027315Y018444D01*
X027291Y018458D01*
X027269Y018475D01*
X027250Y018494D01*
X027234Y018517D01*
X027221Y018541D01*
X027212Y018567D01*
X027206Y018594D01*
X027204Y018621D01*
X031404Y018621D02*
X031406Y018648D01*
X031412Y018675D01*
X031421Y018701D01*
X031434Y018725D01*
X031450Y018748D01*
X031469Y018767D01*
X031491Y018784D01*
X031515Y018798D01*
X031540Y018808D01*
X031567Y018815D01*
X031594Y018818D01*
X031622Y018817D01*
X031649Y018812D01*
X031675Y018804D01*
X031699Y018792D01*
X031722Y018776D01*
X031743Y018758D01*
X031760Y018737D01*
X031775Y018713D01*
X031786Y018688D01*
X031794Y018662D01*
X031798Y018635D01*
X031798Y018607D01*
X031794Y018580D01*
X031786Y018554D01*
X031775Y018529D01*
X031760Y018505D01*
X031743Y018484D01*
X031722Y018466D01*
X031700Y018450D01*
X031675Y018438D01*
X031649Y018430D01*
X031622Y018425D01*
X031594Y018424D01*
X031567Y018427D01*
X031540Y018434D01*
X031515Y018444D01*
X031491Y018458D01*
X031469Y018475D01*
X031450Y018494D01*
X031434Y018517D01*
X031421Y018541D01*
X031412Y018567D01*
X031406Y018594D01*
X031404Y018621D01*
X010475Y001421D02*
X010477Y001447D01*
X010483Y001473D01*
X010493Y001498D01*
X010506Y001521D01*
X010522Y001541D01*
X010542Y001559D01*
X010564Y001574D01*
X010587Y001586D01*
X010613Y001594D01*
X010639Y001598D01*
X010665Y001598D01*
X010691Y001594D01*
X010717Y001586D01*
X010741Y001574D01*
X010762Y001559D01*
X010782Y001541D01*
X010798Y001521D01*
X010811Y001498D01*
X010821Y001473D01*
X010827Y001447D01*
X010829Y001421D01*
X010827Y001395D01*
X010821Y001369D01*
X010811Y001344D01*
X010798Y001321D01*
X010782Y001301D01*
X010762Y001283D01*
X010740Y001268D01*
X010717Y001256D01*
X010691Y001248D01*
X010665Y001244D01*
X010639Y001244D01*
X010613Y001248D01*
X010587Y001256D01*
X010563Y001268D01*
X010542Y001283D01*
X010522Y001301D01*
X010506Y001321D01*
X010493Y001344D01*
X010483Y001369D01*
X010477Y001395D01*
X010475Y001421D01*
X009294Y001421D02*
X009296Y001447D01*
X009302Y001473D01*
X009312Y001498D01*
X009325Y001521D01*
X009341Y001541D01*
X009361Y001559D01*
X009383Y001574D01*
X009406Y001586D01*
X009432Y001594D01*
X009458Y001598D01*
X009484Y001598D01*
X009510Y001594D01*
X009536Y001586D01*
X009560Y001574D01*
X009581Y001559D01*
X009601Y001541D01*
X009617Y001521D01*
X009630Y001498D01*
X009640Y001473D01*
X009646Y001447D01*
X009648Y001421D01*
X009646Y001395D01*
X009640Y001369D01*
X009630Y001344D01*
X009617Y001321D01*
X009601Y001301D01*
X009581Y001283D01*
X009559Y001268D01*
X009536Y001256D01*
X009510Y001248D01*
X009484Y001244D01*
X009458Y001244D01*
X009432Y001248D01*
X009406Y001256D01*
X009382Y001268D01*
X009361Y001283D01*
X009341Y001301D01*
X009325Y001321D01*
X009312Y001344D01*
X009302Y001369D01*
X009296Y001395D01*
X009294Y001421D01*
X007115Y001421D02*
X007117Y001447D01*
X007123Y001473D01*
X007133Y001498D01*
X007146Y001521D01*
X007162Y001541D01*
X007182Y001559D01*
X007204Y001574D01*
X007227Y001586D01*
X007253Y001594D01*
X007279Y001598D01*
X007305Y001598D01*
X007331Y001594D01*
X007357Y001586D01*
X007381Y001574D01*
X007402Y001559D01*
X007422Y001541D01*
X007438Y001521D01*
X007451Y001498D01*
X007461Y001473D01*
X007467Y001447D01*
X007469Y001421D01*
X007467Y001395D01*
X007461Y001369D01*
X007451Y001344D01*
X007438Y001321D01*
X007422Y001301D01*
X007402Y001283D01*
X007380Y001268D01*
X007357Y001256D01*
X007331Y001248D01*
X007305Y001244D01*
X007279Y001244D01*
X007253Y001248D01*
X007227Y001256D01*
X007203Y001268D01*
X007182Y001283D01*
X007162Y001301D01*
X007146Y001321D01*
X007133Y001344D01*
X007123Y001369D01*
X007117Y001395D01*
X007115Y001421D01*
X005934Y001421D02*
X005936Y001447D01*
X005942Y001473D01*
X005952Y001498D01*
X005965Y001521D01*
X005981Y001541D01*
X006001Y001559D01*
X006023Y001574D01*
X006046Y001586D01*
X006072Y001594D01*
X006098Y001598D01*
X006124Y001598D01*
X006150Y001594D01*
X006176Y001586D01*
X006200Y001574D01*
X006221Y001559D01*
X006241Y001541D01*
X006257Y001521D01*
X006270Y001498D01*
X006280Y001473D01*
X006286Y001447D01*
X006288Y001421D01*
X006286Y001395D01*
X006280Y001369D01*
X006270Y001344D01*
X006257Y001321D01*
X006241Y001301D01*
X006221Y001283D01*
X006199Y001268D01*
X006176Y001256D01*
X006150Y001248D01*
X006124Y001244D01*
X006098Y001244D01*
X006072Y001248D01*
X006046Y001256D01*
X006022Y001268D01*
X006001Y001283D01*
X005981Y001301D01*
X005965Y001321D01*
X005952Y001344D01*
X005942Y001369D01*
X005936Y001395D01*
X005934Y001421D01*
D25*
X006111Y001421D03*
X007292Y001421D03*
X009471Y001421D03*
X010652Y001421D03*
D26*
X021538Y005446D03*
X021538Y005761D03*
X021538Y006076D03*
X021538Y006391D03*
X021538Y006706D03*
X021538Y007021D03*
X021538Y007336D03*
X021538Y007651D03*
X021538Y007966D03*
X021538Y008281D03*
X021538Y008596D03*
X026105Y008596D03*
X026105Y008281D03*
X026105Y007966D03*
X026105Y007651D03*
X026105Y007336D03*
X026105Y007021D03*
X026105Y006706D03*
X026105Y006391D03*
X026105Y006076D03*
X026105Y005761D03*
X026105Y005446D03*
D27*
X025396Y004738D03*
X025081Y004738D03*
X024766Y004738D03*
X024451Y004738D03*
X024136Y004738D03*
X023821Y004738D03*
X023506Y004738D03*
X023191Y004738D03*
X022876Y004738D03*
X022561Y004738D03*
X022246Y004738D03*
X022246Y009305D03*
X022561Y009305D03*
X022876Y009305D03*
X023191Y009305D03*
X023506Y009305D03*
X023821Y009305D03*
X024136Y009305D03*
X024451Y009305D03*
X024766Y009305D03*
X025081Y009305D03*
X025396Y009305D03*
D28*
X024353Y019058D03*
X024097Y019058D03*
X023841Y019058D03*
X023585Y019058D03*
X023329Y019058D03*
D29*
X022266Y020101D03*
X025416Y020101D03*
D30*
X028320Y018227D03*
X029107Y018227D03*
X029895Y018227D03*
X030682Y018227D03*
X030289Y019015D03*
X028714Y019015D03*
D31*
X027401Y018621D03*
X031601Y018621D03*
D32*
X031001Y020246D03*
X030001Y020246D03*
X029001Y020246D03*
X028001Y020246D03*
M02*
