%
M48
M72
T01C0.0120
T02C0.0320
T03C0.0354
T04C0.0394
%
T01
X5901Y3821
X6541Y3821
X7661Y4621
X7341Y4941
X4541Y4141
X3981Y4141
X7501Y2541
X11021Y4941
X15341Y7181
X14781Y9341
X13181Y9661
X10861Y9501
X10381Y8701
X8141Y8621
X7901Y9021
X6861Y9101
X6861Y8621
X8141Y8141
X6461Y6821
X5741Y6821
X4541Y7661
X3981Y7661
X5421Y10701
X4541Y11101
X3981Y11101
X6701Y10701
X7501Y11421
X8461Y11181
X8141Y10701
X9421Y10701
X9901Y10861
X10381Y11021
X6661Y13821
X5461Y13821
X4541Y14381
X3981Y14381
X5581Y17261
X6541Y17261
X4541Y17621
X3981Y17621
X4781Y19821
X5661Y20701
X6221Y20981
X6501Y20701
X3921Y20721
X19501Y10541
X19821Y10301
X20781Y9821
X22461Y9901
X22701Y10141
X23901Y11181
X26061Y10381
X27181Y10381
X28541Y10381
X26861Y11901
X28461Y13581
X26101Y13741
X25841Y13741
X24301Y14301
X24301Y15021
X24621Y15021
X25741Y15661
X24301Y16781
X23661Y16141
X23861Y15961
X25261Y16941
X25821Y16941
X25501Y18381
X26621Y18781
X26861Y20781
X25741Y20781
X23641Y18531
X23641Y17931
X21101Y16621
X20621Y16221
X20141Y16221
X20141Y15501
X20621Y15501
X20941Y15181
X22781Y13981
X23101Y13981
X23501Y13661
X21221Y13661
X21221Y13101
X25821Y9181
X24461Y8941
X23821Y8941
X23821Y8301
X23061Y8021
X23061Y8581
X22101Y7741
X20221Y6461
X19581Y6701
X19101Y6701
X19101Y7181
X19581Y7181
X22301Y5501
X24141Y6381
X24461Y5741
X24461Y5101
X24781Y4301
X25421Y3981
X25421Y3341
X25421Y2221
X25741Y1101
X27181Y2461
X28461Y1101
X23741Y2861
X23421Y2941
X23741Y3501
X21101Y2541
X19821Y1101
X18931Y2861
X16941Y3021
X25101Y8131
X25741Y7981
X28141Y7901
X30541Y7901
X32141Y6701
X32141Y5101
X30941Y13581
X30381Y15661
X29901Y15661
X29261Y15981
X30381Y17261
X29901Y17501
T02
X803Y1391
X1803Y1891
X2803Y1891
X3803Y1391
X3803Y2391
X2803Y2891
X1803Y2891
X803Y2391
X803Y3391
X803Y4641
X1803Y5141
X2803Y5141
X3803Y4641
X3803Y5641
X2803Y6141
X1803Y6141
X803Y5641
X803Y6641
X803Y8391
X1803Y8891
X2803Y8891
X3803Y8391
X3803Y9391
X2803Y9891
X1803Y9891
X803Y9391
X803Y10391
X803Y11641
X1803Y12141
X2803Y12141
X3803Y11641
X3803Y12641
X2803Y13141
X1803Y13141
X803Y12641
X803Y13641
X803Y14891
X1803Y15391
X2803Y15391
X3803Y14891
X3803Y15891
X2803Y16391
X1803Y16391
X803Y15891
X803Y16891
X803Y18141
X1803Y18641
X2803Y18641
X3803Y18141
X3803Y19141
X2803Y19641
X1803Y19641
X803Y19141
X803Y20141
X3803Y20141
X3803Y16891
X3803Y13641
X3803Y10391
X3803Y6641
X3803Y3391
T03
X6111Y1421
X7292Y1421
X9471Y1421
X10652Y1421
T04
X27401Y18621
X31601Y18621
M30
