G75*
G70*
%OFA0B0*%
%FSLAX24Y24*%
%IPPOS*%
%LPD*%
%AMOC8*
5,1,8,0,0,1.08239X$1,22.5*
%
%ADD10C,0.0001*%
%ADD11C,0.0040*%
%ADD12C,0.0080*%
%ADD13C,0.0060*%
%ADD14C,0.0030*%
%ADD15C,0.0050*%
%ADD16C,0.0100*%
%ADD17C,0.0000*%
%ADD18C,0.0070*%
%ADD19R,0.0039X0.0013*%
%ADD20R,0.0065X0.0013*%
%ADD21R,0.0078X0.0013*%
%ADD22R,0.0117X0.0013*%
%ADD23R,0.0130X0.0013*%
%ADD24R,0.0169X0.0013*%
%ADD25R,0.0195X0.0013*%
%ADD26R,0.0221X0.0013*%
%ADD27R,0.0247X0.0013*%
%ADD28R,0.0273X0.0013*%
%ADD29R,0.0299X0.0013*%
%ADD30R,0.0325X0.0013*%
%ADD31R,0.0351X0.0013*%
%ADD32R,0.0377X0.0013*%
%ADD33R,0.0416X0.0013*%
%ADD34R,0.0429X0.0013*%
%ADD35R,0.0429X0.0013*%
%ADD36R,0.0429X0.0013*%
%ADD37R,0.0416X0.0013*%
%ADD38R,0.0429X0.0013*%
%ADD39R,0.0416X0.0013*%
%ADD40R,0.1937X0.0013*%
%ADD41R,0.1664X0.0013*%
%ADD42R,0.1924X0.0013*%
%ADD43R,0.1664X0.0013*%
%ADD44R,0.1898X0.0013*%
%ADD45R,0.1885X0.0013*%
%ADD46R,0.1859X0.0013*%
%ADD47R,0.1846X0.0013*%
%ADD48R,0.1820X0.0013*%
%ADD49R,0.1807X0.0013*%
%ADD50R,0.1781X0.0013*%
%ADD51R,0.1768X0.0013*%
%ADD52R,0.1755X0.0013*%
%ADD53R,0.1742X0.0013*%
%ADD54R,0.1716X0.0013*%
%ADD55R,0.1703X0.0013*%
%ADD56R,0.1677X0.0013*%
%ADD57R,0.1651X0.0013*%
%ADD58R,0.1625X0.0013*%
%ADD59R,0.1612X0.0013*%
%ADD60R,0.1586X0.0013*%
%ADD61R,0.0260X0.0013*%
%ADD62R,0.0247X0.0013*%
%ADD63R,0.0260X0.0013*%
%ADD64R,0.0247X0.0013*%
%ADD65R,0.0195X0.0013*%
%ADD66R,0.0455X0.0013*%
%ADD67R,0.1430X0.0013*%
%ADD68R,0.1157X0.0013*%
%ADD69R,0.0520X0.0013*%
%ADD70R,0.1430X0.0013*%
%ADD71R,0.1287X0.0013*%
%ADD72R,0.0585X0.0013*%
%ADD73R,0.1352X0.0013*%
%ADD74R,0.0637X0.0013*%
%ADD75R,0.1443X0.0013*%
%ADD76R,0.1378X0.0013*%
%ADD77R,0.0689X0.0013*%
%ADD78R,0.1404X0.0013*%
%ADD79R,0.0715X0.0013*%
%ADD80R,0.1443X0.0013*%
%ADD81R,0.1417X0.0013*%
%ADD82R,0.0767X0.0013*%
%ADD83R,0.0793X0.0013*%
%ADD84R,0.1443X0.0013*%
%ADD85R,0.0819X0.0013*%
%ADD86R,0.1456X0.0013*%
%ADD87R,0.0871X0.0013*%
%ADD88R,0.1469X0.0013*%
%ADD89R,0.0884X0.0013*%
%ADD90R,0.1469X0.0013*%
%ADD91R,0.0897X0.0013*%
%ADD92R,0.1482X0.0013*%
%ADD93R,0.0923X0.0013*%
%ADD94R,0.1196X0.0013*%
%ADD95R,0.1495X0.0013*%
%ADD96R,0.1456X0.0013*%
%ADD97R,0.1209X0.0013*%
%ADD98R,0.1456X0.0013*%
%ADD99R,0.1508X0.0013*%
%ADD100R,0.1209X0.0013*%
%ADD101R,0.1521X0.0013*%
%ADD102R,0.1222X0.0013*%
%ADD103R,0.2756X0.0013*%
%ADD104R,0.1989X0.0013*%
%ADD105R,0.0715X0.0013*%
%ADD106R,0.1963X0.0013*%
%ADD107R,0.1950X0.0013*%
%ADD108R,0.0676X0.0013*%
%ADD109R,0.0663X0.0013*%
%ADD110R,0.0910X0.0013*%
%ADD111R,0.0936X0.0013*%
%ADD112R,0.2548X0.0013*%
%ADD113R,0.0910X0.0013*%
%ADD114R,0.0650X0.0013*%
%ADD115R,0.2548X0.0013*%
%ADD116R,0.0897X0.0013*%
%ADD117R,0.0650X0.0013*%
%ADD118R,0.0884X0.0013*%
%ADD119R,0.1547X0.0013*%
%ADD120R,0.1547X0.0013*%
%ADD121R,0.0871X0.0013*%
%ADD122R,0.1053X0.0013*%
%ADD123R,0.0468X0.0013*%
%ADD124R,0.1053X0.0013*%
%ADD125R,0.0468X0.0013*%
%ADD126R,0.1040X0.0013*%
%ADD127R,0.1027X0.0013*%
%ADD128R,0.1027X0.0013*%
%ADD129R,0.0663X0.0013*%
%ADD130R,0.1014X0.0013*%
%ADD131R,0.1001X0.0013*%
%ADD132R,0.0702X0.0013*%
%ADD133R,0.0416X0.0013*%
%ADD134R,0.0728X0.0013*%
%ADD135R,0.0741X0.0013*%
%ADD136R,0.0754X0.0013*%
%ADD137R,0.0780X0.0013*%
%ADD138R,0.0455X0.0013*%
%ADD139R,0.0819X0.0013*%
%ADD140R,0.0832X0.0013*%
%ADD141R,0.0468X0.0013*%
%ADD142R,0.0858X0.0013*%
%ADD143R,0.0871X0.0013*%
%ADD144R,0.0403X0.0013*%
%ADD145R,0.0403X0.0013*%
%ADD146R,0.0481X0.0013*%
%ADD147R,0.0533X0.0013*%
%ADD148R,0.0403X0.0013*%
%ADD149R,0.0689X0.0013*%
%ADD150R,0.1040X0.0013*%
%ADD151R,0.0403X0.0013*%
%ADD152R,0.0728X0.0013*%
%ADD153R,0.1014X0.0013*%
%ADD154R,0.0741X0.0013*%
%ADD155R,0.0988X0.0013*%
%ADD156R,0.0975X0.0013*%
%ADD157R,0.0754X0.0013*%
%ADD158R,0.0949X0.0013*%
%ADD159R,0.0754X0.0013*%
%ADD160R,0.0923X0.0013*%
%ADD161R,0.0845X0.0013*%
%ADD162R,0.0845X0.0013*%
%ADD163R,0.0741X0.0013*%
%ADD164R,0.0728X0.0013*%
%ADD165R,0.0390X0.0013*%
%ADD166R,0.0975X0.0013*%
%ADD167R,0.0390X0.0013*%
%ADD168R,0.0988X0.0013*%
%ADD169R,0.0702X0.0013*%
%ADD170R,0.0676X0.0013*%
%ADD171R,0.0663X0.0013*%
%ADD172R,0.0481X0.0013*%
%ADD173R,0.0442X0.0013*%
%ADD174R,0.0624X0.0013*%
%ADD175R,0.0442X0.0013*%
%ADD176R,0.0611X0.0013*%
%ADD177R,0.0598X0.0013*%
%ADD178R,0.0572X0.0013*%
%ADD179R,0.1001X0.0013*%
%ADD180R,0.0949X0.0013*%
%ADD181R,0.0377X0.0013*%
%ADD182R,0.0858X0.0013*%
%ADD183R,0.0676X0.0013*%
%ADD184R,0.0858X0.0013*%
%ADD185R,0.0806X0.0013*%
%ADD186R,0.0780X0.0013*%
%ADD187R,0.0871X0.0013*%
%ADD188R,0.0767X0.0013*%
%ADD189R,0.0689X0.0013*%
%ADD190R,0.0988X0.0013*%
%ADD191R,0.0988X0.0013*%
%ADD192R,0.0962X0.0013*%
%ADD193R,0.0949X0.0013*%
%ADD194R,0.0962X0.0013*%
%ADD195R,0.0936X0.0013*%
%ADD196R,0.0858X0.0013*%
%ADD197R,0.0832X0.0013*%
%ADD198R,0.0806X0.0013*%
%ADD199R,0.0832X0.0013*%
%ADD200R,0.0702X0.0013*%
%ADD201R,0.0793X0.0013*%
%ADD202R,0.0624X0.0013*%
%ADD203R,0.0546X0.0013*%
%ADD204R,0.0364X0.0013*%
%ADD205R,0.0221X0.0013*%
%ADD206R,0.1521X0.0013*%
%ADD207R,0.1521X0.0013*%
%ADD208R,0.4394X0.0013*%
%ADD209R,0.4394X0.0013*%
D10*
X001323Y000141D02*
X032622Y000141D01*
X032688Y000143D01*
X032754Y000148D01*
X032820Y000158D01*
X032885Y000171D01*
X032949Y000187D01*
X033012Y000207D01*
X033074Y000231D01*
X033134Y000258D01*
X033193Y000288D01*
X033250Y000322D01*
X033305Y000359D01*
X033358Y000399D01*
X033409Y000441D01*
X033457Y000487D01*
X033503Y000535D01*
X033545Y000586D01*
X033585Y000639D01*
X033622Y000694D01*
X033656Y000751D01*
X033686Y000810D01*
X033713Y000870D01*
X033737Y000932D01*
X033757Y000995D01*
X033773Y001059D01*
X033786Y001124D01*
X033796Y001190D01*
X033801Y001256D01*
X033803Y001322D01*
X033803Y020220D01*
X033801Y020286D01*
X033796Y020352D01*
X033786Y020418D01*
X033773Y020483D01*
X033757Y020547D01*
X033737Y020610D01*
X033713Y020672D01*
X033686Y020732D01*
X033656Y020791D01*
X033622Y020848D01*
X033585Y020903D01*
X033545Y020956D01*
X033503Y021007D01*
X033457Y021055D01*
X033409Y021101D01*
X033358Y021143D01*
X033305Y021183D01*
X033250Y021220D01*
X033193Y021254D01*
X033134Y021284D01*
X033074Y021311D01*
X033012Y021335D01*
X032949Y021355D01*
X032885Y021371D01*
X032820Y021384D01*
X032754Y021394D01*
X032688Y021399D01*
X032622Y021401D01*
X001323Y021401D01*
X001257Y021399D01*
X001191Y021394D01*
X001125Y021384D01*
X001060Y021371D01*
X000996Y021355D01*
X000933Y021335D01*
X000871Y021311D01*
X000811Y021284D01*
X000752Y021254D01*
X000695Y021220D01*
X000640Y021183D01*
X000587Y021143D01*
X000536Y021101D01*
X000488Y021055D01*
X000442Y021007D01*
X000400Y020956D01*
X000360Y020903D01*
X000323Y020848D01*
X000289Y020791D01*
X000259Y020732D01*
X000232Y020672D01*
X000208Y020610D01*
X000188Y020547D01*
X000172Y020483D01*
X000159Y020418D01*
X000149Y020352D01*
X000144Y020286D01*
X000142Y020220D01*
X000142Y001322D01*
X000144Y001256D01*
X000149Y001190D01*
X000159Y001124D01*
X000172Y001059D01*
X000188Y000995D01*
X000208Y000932D01*
X000232Y000870D01*
X000259Y000810D01*
X000289Y000751D01*
X000323Y000694D01*
X000360Y000639D01*
X000400Y000586D01*
X000442Y000535D01*
X000488Y000487D01*
X000536Y000441D01*
X000587Y000399D01*
X000640Y000359D01*
X000695Y000322D01*
X000752Y000288D01*
X000811Y000258D01*
X000871Y000231D01*
X000933Y000207D01*
X000996Y000187D01*
X001060Y000171D01*
X001125Y000158D01*
X001191Y000148D01*
X001257Y000143D01*
X001323Y000141D01*
D11*
X002801Y000561D02*
X002801Y000921D01*
X002981Y000921D01*
X003041Y000861D01*
X003041Y000741D01*
X002981Y000681D01*
X002801Y000681D01*
X002921Y000681D02*
X003041Y000561D01*
X003169Y000561D02*
X003169Y000621D01*
X003410Y000861D01*
X003410Y000921D01*
X003169Y000921D01*
X005231Y000754D02*
X005231Y000394D01*
X005231Y000514D02*
X005411Y000514D01*
X005471Y000574D01*
X005471Y000694D01*
X005411Y000754D01*
X005231Y000754D01*
X005351Y000514D02*
X005471Y000394D01*
X005599Y000394D02*
X005840Y000394D01*
X005720Y000394D02*
X005720Y000754D01*
X005599Y000634D01*
X005968Y000634D02*
X005968Y000694D01*
X006028Y000754D01*
X006148Y000754D01*
X006208Y000694D01*
X006208Y000634D01*
X006148Y000574D01*
X006028Y000574D01*
X005968Y000634D01*
X006028Y000574D02*
X005968Y000514D01*
X005968Y000454D01*
X006028Y000394D01*
X006148Y000394D01*
X006208Y000454D01*
X006208Y000514D01*
X006148Y000574D01*
X006061Y002041D02*
X006121Y002101D01*
X006121Y002222D01*
X006061Y002282D01*
X005821Y002282D01*
X005761Y002222D01*
X005761Y002101D01*
X005821Y002041D01*
X006061Y002041D01*
X006001Y002162D02*
X006121Y002282D01*
X006061Y002410D02*
X006121Y002470D01*
X006121Y002590D01*
X006061Y002650D01*
X006001Y002650D01*
X005941Y002590D01*
X005941Y002410D01*
X006061Y002410D01*
X005941Y002410D02*
X005821Y002530D01*
X005761Y002650D01*
X005739Y003681D02*
X005379Y003681D01*
X005379Y003861D01*
X005439Y003921D01*
X005559Y003921D01*
X005619Y003861D01*
X005619Y003681D01*
X005619Y003801D02*
X005739Y003921D01*
X005739Y004049D02*
X005739Y004290D01*
X005739Y004169D02*
X005379Y004169D01*
X005499Y004049D01*
X005379Y004418D02*
X005379Y004658D01*
X005439Y004658D01*
X005679Y004418D01*
X005739Y004418D01*
X005791Y005298D02*
X005731Y005358D01*
X005731Y005478D01*
X005791Y005538D01*
X006031Y005538D01*
X006091Y005478D01*
X006091Y005358D01*
X006031Y005298D01*
X005791Y005298D01*
X005971Y005418D02*
X006091Y005538D01*
X006031Y005666D02*
X006091Y005726D01*
X006091Y005846D01*
X006031Y005907D01*
X005911Y005907D01*
X005851Y005846D01*
X005851Y005786D01*
X005911Y005666D01*
X005731Y005666D01*
X005731Y005907D01*
X005699Y007151D02*
X005339Y007151D01*
X005339Y007331D01*
X005399Y007391D01*
X005519Y007391D01*
X005579Y007331D01*
X005579Y007151D01*
X005579Y007271D02*
X005699Y007391D01*
X005699Y007519D02*
X005699Y007760D01*
X005699Y007639D02*
X005339Y007639D01*
X005459Y007519D01*
X005519Y007888D02*
X005399Y008008D01*
X005339Y008128D01*
X005519Y008068D02*
X005519Y007888D01*
X005639Y007888D01*
X005699Y007948D01*
X005699Y008068D01*
X005639Y008128D01*
X005579Y008128D01*
X005519Y008068D01*
X005791Y009088D02*
X005731Y009148D01*
X005731Y009268D01*
X005791Y009328D01*
X006031Y009328D01*
X006091Y009268D01*
X006091Y009148D01*
X006031Y009088D01*
X005791Y009088D01*
X005971Y009208D02*
X006091Y009328D01*
X005911Y009456D02*
X005911Y009697D01*
X006091Y009636D02*
X005731Y009636D01*
X005911Y009456D01*
X005759Y010701D02*
X005399Y010701D01*
X005399Y010881D01*
X005459Y010941D01*
X005579Y010941D01*
X005639Y010881D01*
X005639Y010701D01*
X005639Y010821D02*
X005759Y010941D01*
X005759Y011069D02*
X005759Y011310D01*
X005759Y011189D02*
X005399Y011189D01*
X005519Y011069D01*
X005579Y011438D02*
X005399Y011438D01*
X005399Y011678D01*
X005519Y011618D02*
X005579Y011678D01*
X005699Y011678D01*
X005759Y011618D01*
X005759Y011498D01*
X005699Y011438D01*
X005579Y011438D02*
X005519Y011558D01*
X005519Y011618D01*
X005761Y012348D02*
X005701Y012408D01*
X005701Y012528D01*
X005761Y012588D01*
X006001Y012588D01*
X006061Y012528D01*
X006061Y012408D01*
X006001Y012348D01*
X005761Y012348D01*
X005941Y012468D02*
X006061Y012588D01*
X006001Y012716D02*
X006061Y012776D01*
X006061Y012896D01*
X006001Y012957D01*
X005941Y012957D01*
X005881Y012896D01*
X005881Y012836D01*
X005881Y012896D02*
X005821Y012957D01*
X005761Y012957D01*
X005701Y012896D01*
X005701Y012776D01*
X005761Y012716D01*
X005699Y013971D02*
X005339Y013971D01*
X005339Y014151D01*
X005399Y014211D01*
X005519Y014211D01*
X005579Y014151D01*
X005579Y013971D01*
X005579Y014091D02*
X005699Y014211D01*
X005699Y014339D02*
X005699Y014580D01*
X005699Y014459D02*
X005339Y014459D01*
X005459Y014339D01*
X005519Y014708D02*
X005519Y014948D01*
X005699Y014888D02*
X005339Y014888D01*
X005519Y014708D01*
X005761Y015578D02*
X005701Y015638D01*
X005701Y015758D01*
X005761Y015818D01*
X006001Y015818D01*
X006061Y015758D01*
X006061Y015638D01*
X006001Y015578D01*
X005761Y015578D01*
X005941Y015698D02*
X006061Y015818D01*
X006061Y015946D02*
X005821Y016187D01*
X005761Y016187D01*
X005701Y016126D01*
X005701Y016006D01*
X005761Y015946D01*
X006061Y015946D02*
X006061Y016187D01*
X005679Y017421D02*
X005319Y017421D01*
X005319Y017601D01*
X005379Y017661D01*
X005499Y017661D01*
X005559Y017601D01*
X005559Y017421D01*
X005559Y017541D02*
X005679Y017661D01*
X005679Y017789D02*
X005679Y018030D01*
X005679Y017909D02*
X005319Y017909D01*
X005439Y017789D01*
X005379Y018158D02*
X005319Y018218D01*
X005319Y018338D01*
X005379Y018398D01*
X005439Y018398D01*
X005499Y018338D01*
X005559Y018398D01*
X005619Y018398D01*
X005679Y018338D01*
X005679Y018218D01*
X005619Y018158D01*
X005499Y018278D02*
X005499Y018338D01*
X005781Y018898D02*
X005721Y018958D01*
X005721Y019078D01*
X005781Y019138D01*
X006021Y019138D01*
X006081Y019078D01*
X006081Y018958D01*
X006021Y018898D01*
X005781Y018898D01*
X005961Y019018D02*
X006081Y019138D01*
X006081Y019266D02*
X006081Y019507D01*
X006081Y019386D02*
X005721Y019386D01*
X005841Y019266D01*
X004187Y020874D02*
X004067Y020874D01*
X004007Y020934D01*
X004007Y020994D01*
X004067Y021054D01*
X004187Y021054D01*
X004247Y020994D01*
X004247Y020934D01*
X004187Y020874D01*
X004187Y021054D02*
X004247Y021114D01*
X004247Y021174D01*
X004187Y021234D01*
X004067Y021234D01*
X004007Y021174D01*
X004007Y021114D01*
X004067Y021054D01*
X003879Y021054D02*
X003819Y020994D01*
X003639Y020994D01*
X003759Y020994D02*
X003879Y020874D01*
X003879Y021054D02*
X003879Y021174D01*
X003819Y021234D01*
X003639Y021234D01*
X003639Y020874D01*
X003249Y020673D02*
X003249Y020313D01*
X003129Y020313D02*
X003370Y020313D01*
X003129Y020553D02*
X003249Y020673D01*
X003001Y020613D02*
X003001Y020493D01*
X002941Y020433D01*
X002761Y020433D01*
X002761Y020313D02*
X002761Y020673D01*
X002941Y020673D01*
X003001Y020613D01*
X002881Y020433D02*
X003001Y020313D01*
X002981Y017441D02*
X003041Y017381D01*
X003041Y017261D01*
X002981Y017201D01*
X002801Y017201D01*
X002801Y017081D02*
X002801Y017441D01*
X002981Y017441D01*
X003169Y017381D02*
X003229Y017441D01*
X003350Y017441D01*
X003410Y017381D01*
X003410Y017321D01*
X003169Y017081D01*
X003410Y017081D01*
X003041Y017081D02*
X002921Y017201D01*
X002961Y014203D02*
X003021Y014143D01*
X003021Y014023D01*
X002961Y013963D01*
X002781Y013963D01*
X002781Y013843D02*
X002781Y014203D01*
X002961Y014203D01*
X003149Y014143D02*
X003209Y014203D01*
X003330Y014203D01*
X003390Y014143D01*
X003390Y014083D01*
X003330Y014023D01*
X003390Y013963D01*
X003390Y013903D01*
X003330Y013843D01*
X003209Y013843D01*
X003149Y013903D01*
X003021Y013843D02*
X002901Y013963D01*
X003269Y014023D02*
X003330Y014023D01*
X003310Y010921D02*
X003129Y010741D01*
X003370Y010741D01*
X003310Y010561D02*
X003310Y010921D01*
X003001Y010861D02*
X003001Y010741D01*
X002941Y010681D01*
X002761Y010681D01*
X002761Y010561D02*
X002761Y010921D01*
X002941Y010921D01*
X003001Y010861D01*
X002881Y010681D02*
X003001Y010561D01*
X002981Y007401D02*
X003041Y007341D01*
X003041Y007221D01*
X002981Y007161D01*
X002801Y007161D01*
X002801Y007041D02*
X002801Y007401D01*
X002981Y007401D01*
X003169Y007401D02*
X003169Y007221D01*
X003289Y007281D01*
X003350Y007281D01*
X003410Y007221D01*
X003410Y007101D01*
X003350Y007041D01*
X003229Y007041D01*
X003169Y007101D01*
X003041Y007041D02*
X002921Y007161D01*
X003169Y007401D02*
X003410Y007401D01*
X003410Y003961D02*
X003289Y003901D01*
X003169Y003781D01*
X003350Y003781D01*
X003410Y003721D01*
X003410Y003661D01*
X003350Y003601D01*
X003229Y003601D01*
X003169Y003661D01*
X003169Y003781D01*
X003041Y003781D02*
X003041Y003901D01*
X002981Y003961D01*
X002801Y003961D01*
X002801Y003601D01*
X002801Y003721D02*
X002981Y003721D01*
X003041Y003781D01*
X002921Y003721D02*
X003041Y003601D01*
X019426Y008401D02*
X019426Y008761D01*
X019606Y008761D01*
X019666Y008701D01*
X019666Y008581D01*
X019606Y008521D01*
X019426Y008521D01*
X019546Y008521D02*
X019666Y008401D01*
X019794Y008401D02*
X020035Y008401D01*
X019915Y008401D02*
X019915Y008761D01*
X019794Y008641D01*
X020163Y008641D02*
X020163Y008701D01*
X020223Y008761D01*
X020343Y008761D01*
X020403Y008701D01*
X020403Y008461D01*
X020343Y008401D01*
X020223Y008401D01*
X020163Y008461D01*
X020223Y008581D02*
X020403Y008581D01*
X020223Y008581D02*
X020163Y008641D01*
X021341Y009131D02*
X021401Y009071D01*
X021521Y009071D01*
X021581Y009131D01*
X021581Y009431D01*
X021709Y009311D02*
X021829Y009431D01*
X021829Y009071D01*
X021709Y009071D02*
X021950Y009071D01*
X021341Y009131D02*
X021341Y009431D01*
X022188Y007201D02*
X022295Y007095D01*
X022295Y006881D01*
X022295Y007041D02*
X022081Y007041D01*
X022081Y007095D02*
X022188Y007201D01*
X022081Y007095D02*
X022081Y006881D01*
X022519Y006881D02*
X022519Y007201D01*
X022413Y007201D02*
X022626Y007201D01*
X022744Y007201D02*
X022958Y006881D01*
X023075Y006881D02*
X023075Y007201D01*
X023182Y007095D01*
X023289Y007201D01*
X023289Y006881D01*
X023407Y006881D02*
X023620Y006881D01*
X023738Y006934D02*
X023792Y006881D01*
X023899Y006881D01*
X023952Y006934D01*
X023952Y007041D01*
X023845Y007041D01*
X023738Y007148D02*
X023738Y006934D01*
X023738Y007148D02*
X023792Y007201D01*
X023899Y007201D01*
X023952Y007148D01*
X024070Y007095D02*
X024177Y007201D01*
X024283Y007095D01*
X024283Y006881D01*
X024401Y006934D02*
X024455Y006881D01*
X024561Y006881D01*
X024615Y006934D01*
X024615Y006988D01*
X024561Y007041D01*
X024508Y007041D01*
X024561Y007041D02*
X024615Y007095D01*
X024615Y007148D01*
X024561Y007201D01*
X024455Y007201D01*
X024401Y007148D01*
X024283Y007041D02*
X024070Y007041D01*
X024070Y007095D02*
X024070Y006881D01*
X023514Y007041D02*
X023407Y007041D01*
X023407Y007201D02*
X023407Y006881D01*
X022958Y007201D02*
X022744Y006881D01*
X023407Y007201D02*
X023620Y007201D01*
X024733Y007148D02*
X024786Y007201D01*
X024893Y007201D01*
X024946Y007148D01*
X024946Y007095D01*
X024733Y006881D01*
X024946Y006881D01*
X025064Y006934D02*
X025118Y006881D01*
X025224Y006881D01*
X025278Y006934D01*
X025278Y007201D01*
X025396Y007041D02*
X025609Y007041D01*
X025556Y006881D02*
X025556Y007201D01*
X025396Y007041D01*
X025064Y006934D02*
X025064Y007201D01*
X026964Y007296D02*
X027025Y007236D01*
X027145Y007236D01*
X027205Y007296D01*
X027333Y007236D02*
X027573Y007476D01*
X027573Y007536D01*
X027513Y007596D01*
X027393Y007596D01*
X027333Y007536D01*
X027205Y007536D02*
X027145Y007596D01*
X027025Y007596D01*
X026964Y007536D01*
X026964Y007296D01*
X027333Y007236D02*
X027573Y007236D01*
X028351Y008171D02*
X028471Y008171D01*
X028531Y008231D01*
X028531Y008531D01*
X028659Y008351D02*
X028840Y008531D01*
X028840Y008171D01*
X028900Y008351D02*
X028659Y008351D01*
X028351Y008171D02*
X028291Y008231D01*
X028291Y008531D01*
X028140Y009358D02*
X028140Y009718D01*
X027959Y009538D01*
X028200Y009538D01*
X027831Y009418D02*
X027771Y009358D01*
X027651Y009358D01*
X027591Y009418D01*
X027591Y009658D01*
X027651Y009718D01*
X027771Y009718D01*
X027831Y009658D01*
X027895Y011211D02*
X028015Y011211D01*
X028075Y011271D01*
X028203Y011271D02*
X028263Y011211D01*
X028383Y011211D01*
X028443Y011271D01*
X028443Y011331D01*
X028383Y011391D01*
X028263Y011391D01*
X028203Y011451D01*
X028203Y011511D01*
X028263Y011571D01*
X028383Y011571D01*
X028443Y011511D01*
X028443Y011451D01*
X028383Y011391D01*
X028263Y011391D02*
X028203Y011331D01*
X028203Y011271D01*
X028075Y011511D02*
X028015Y011571D01*
X027895Y011571D01*
X027834Y011511D01*
X027834Y011271D01*
X027895Y011211D01*
X027875Y012301D02*
X027995Y012301D01*
X028055Y012361D01*
X028183Y012361D02*
X028243Y012301D01*
X028363Y012301D01*
X028423Y012361D01*
X028423Y012601D01*
X028363Y012661D01*
X028243Y012661D01*
X028183Y012601D01*
X028183Y012541D01*
X028243Y012481D01*
X028423Y012481D01*
X028055Y012601D02*
X027995Y012661D01*
X027875Y012661D01*
X027814Y012601D01*
X027814Y012361D01*
X027875Y012301D01*
X027340Y014051D02*
X027099Y014051D01*
X027340Y014291D01*
X027340Y014351D01*
X027280Y014411D01*
X027159Y014411D01*
X027099Y014351D01*
X026971Y014411D02*
X026971Y014111D01*
X026911Y014051D01*
X026791Y014051D01*
X026731Y014111D01*
X026731Y014411D01*
X025318Y015366D02*
X025078Y015366D01*
X025198Y015366D02*
X025198Y015726D01*
X025078Y015606D01*
X024829Y015726D02*
X024829Y015366D01*
X024709Y015366D02*
X024950Y015366D01*
X024581Y015426D02*
X024521Y015366D01*
X024401Y015366D01*
X024341Y015426D01*
X024341Y015666D01*
X024401Y015726D01*
X024521Y015726D01*
X024581Y015666D01*
X024709Y015606D02*
X024829Y015726D01*
X023986Y016461D02*
X023926Y016401D01*
X023686Y016401D01*
X023626Y016461D01*
X023626Y016581D01*
X023686Y016641D01*
X023686Y016769D02*
X023626Y016829D01*
X023626Y016950D01*
X023686Y017010D01*
X023746Y017010D01*
X023806Y016950D01*
X023866Y017010D01*
X023926Y017010D01*
X023986Y016950D01*
X023986Y016829D01*
X023926Y016769D01*
X023926Y016641D02*
X023986Y016581D01*
X023986Y016461D01*
X023806Y016889D02*
X023806Y016950D01*
X022753Y018466D02*
X022513Y018466D01*
X022633Y018466D02*
X022633Y018826D01*
X022513Y018706D01*
X022385Y018766D02*
X022325Y018826D01*
X022205Y018826D01*
X022144Y018766D01*
X022144Y018526D01*
X022205Y018466D01*
X022325Y018466D01*
X022385Y018526D01*
X022283Y019139D02*
X022043Y019139D01*
X022163Y019139D02*
X022163Y019499D01*
X022043Y019379D01*
X021915Y019499D02*
X021794Y019499D01*
X021855Y019499D02*
X021855Y019199D01*
X021794Y019139D01*
X021734Y019139D01*
X021674Y019199D01*
X017528Y019566D02*
X017468Y019506D01*
X017348Y019506D01*
X017288Y019566D01*
X017408Y019686D02*
X017468Y019686D01*
X017528Y019626D01*
X017528Y019566D01*
X017468Y019686D02*
X017528Y019747D01*
X017528Y019807D01*
X017468Y019867D01*
X017348Y019867D01*
X017288Y019807D01*
X017160Y019867D02*
X017040Y019867D01*
X017100Y019867D02*
X017100Y019566D01*
X017040Y019506D01*
X016980Y019506D01*
X016920Y019566D01*
X018981Y016386D02*
X018981Y016146D01*
X019041Y016018D02*
X018981Y015958D01*
X018981Y015838D01*
X018921Y015778D01*
X018861Y015778D01*
X018801Y015838D01*
X018801Y015958D01*
X018861Y016018D01*
X019041Y016018D02*
X019101Y016018D01*
X019161Y015958D01*
X019161Y015838D01*
X019101Y015778D01*
X019101Y015650D02*
X018861Y015650D01*
X018801Y015590D01*
X018801Y015469D01*
X018861Y015409D01*
X019101Y015409D01*
X019161Y015469D01*
X019161Y015590D01*
X019101Y015650D01*
X019521Y015650D02*
X019521Y015409D01*
X019881Y015409D01*
X019881Y015650D01*
X019821Y015778D02*
X019881Y015838D01*
X019881Y015958D01*
X019821Y016018D01*
X019701Y016018D01*
X019701Y015898D01*
X019581Y016018D02*
X019521Y015958D01*
X019521Y015838D01*
X019581Y015778D01*
X019821Y015778D01*
X019701Y015529D02*
X019701Y015409D01*
X019881Y015281D02*
X019521Y015281D01*
X019521Y015041D02*
X019881Y015281D01*
X019881Y015041D02*
X019521Y015041D01*
X019161Y015041D02*
X018801Y015041D01*
X018801Y015221D01*
X018861Y015281D01*
X018981Y015281D01*
X019041Y015221D01*
X019041Y015041D01*
X019109Y014681D02*
X019229Y014681D01*
X019169Y014681D02*
X019169Y014321D01*
X019109Y014321D02*
X019229Y014321D01*
X019354Y014321D02*
X019354Y014681D01*
X019535Y014681D01*
X019595Y014621D01*
X019595Y014501D01*
X019535Y014441D01*
X019354Y014441D01*
X019723Y014381D02*
X019723Y014621D01*
X019783Y014681D01*
X019903Y014681D01*
X019963Y014621D01*
X019963Y014381D01*
X019903Y014321D01*
X019783Y014321D01*
X019723Y014381D01*
X018981Y014321D02*
X018741Y014321D01*
X018741Y014681D01*
X020916Y016048D02*
X020976Y015988D01*
X021096Y015988D01*
X021156Y016048D01*
X021156Y016348D01*
X021284Y016288D02*
X021344Y016348D01*
X021464Y016348D01*
X021524Y016288D01*
X021524Y016228D01*
X021464Y016168D01*
X021524Y016108D01*
X021524Y016048D01*
X021464Y015988D01*
X021344Y015988D01*
X021284Y016048D01*
X021404Y016168D02*
X021464Y016168D01*
X020916Y016048D02*
X020916Y016348D01*
X019701Y016386D02*
X019701Y016146D01*
X019101Y016266D02*
X018861Y016266D01*
X021426Y013721D02*
X021606Y013721D01*
X021666Y013661D01*
X021666Y013541D01*
X021606Y013481D01*
X021426Y013481D01*
X021426Y013361D02*
X021426Y013721D01*
X021546Y013481D02*
X021666Y013361D01*
X021794Y013361D02*
X022035Y013361D01*
X021915Y013361D02*
X021915Y013721D01*
X021794Y013601D01*
X022163Y013601D02*
X022283Y013721D01*
X022283Y013361D01*
X022163Y013361D02*
X022403Y013361D01*
X023156Y013456D02*
X023156Y013216D01*
X023216Y013156D01*
X023336Y013156D01*
X023396Y013216D01*
X023524Y013156D02*
X023765Y013156D01*
X023645Y013156D02*
X023645Y013516D01*
X023524Y013396D01*
X023396Y013456D02*
X023336Y013516D01*
X023216Y013516D01*
X023156Y013456D01*
X023893Y013456D02*
X023893Y013216D01*
X024133Y013456D01*
X024133Y013216D01*
X024073Y013156D01*
X023953Y013156D01*
X023893Y013216D01*
X023893Y013456D02*
X023953Y013516D01*
X024073Y013516D01*
X024133Y013456D01*
X023434Y014929D02*
X023194Y014929D01*
X023314Y014929D02*
X023314Y015289D01*
X023194Y015169D01*
X023066Y015289D02*
X022826Y015289D01*
X022826Y014929D01*
X022826Y015109D02*
X022946Y015109D01*
X022103Y012661D02*
X022103Y012301D01*
X021983Y012301D02*
X022223Y012301D01*
X021983Y012541D02*
X022103Y012661D01*
X021855Y012661D02*
X021614Y012301D01*
X021855Y012301D02*
X021614Y012661D01*
X024604Y010256D02*
X024604Y010016D01*
X024665Y009956D01*
X024785Y009956D01*
X024845Y010016D01*
X024973Y010016D02*
X025033Y009956D01*
X025153Y009956D01*
X025213Y010016D01*
X025213Y010136D01*
X025153Y010196D01*
X025093Y010196D01*
X024973Y010136D01*
X024973Y010316D01*
X025213Y010316D01*
X024845Y010256D02*
X024785Y010316D01*
X024665Y010316D01*
X024604Y010256D01*
X021050Y006746D02*
X020809Y006746D01*
X020681Y006686D02*
X020621Y006746D01*
X020501Y006746D01*
X020441Y006686D01*
X020441Y006446D01*
X020501Y006386D01*
X020621Y006386D01*
X020681Y006446D01*
X020809Y006446D02*
X020809Y006386D01*
X020809Y006446D02*
X021050Y006686D01*
X021050Y006746D01*
X020718Y004761D02*
X020598Y004761D01*
X020538Y004701D01*
X020538Y004461D01*
X020778Y004701D01*
X020778Y004461D01*
X020718Y004401D01*
X020598Y004401D01*
X020538Y004461D01*
X020410Y004401D02*
X020169Y004401D01*
X020289Y004401D02*
X020289Y004761D01*
X020169Y004641D01*
X020041Y004581D02*
X019981Y004521D01*
X019801Y004521D01*
X019801Y004401D02*
X019801Y004761D01*
X019981Y004761D01*
X020041Y004701D01*
X020041Y004581D01*
X019921Y004521D02*
X020041Y004401D01*
X020718Y004761D02*
X020778Y004701D01*
X024791Y003803D02*
X024851Y003683D01*
X024971Y003563D01*
X024971Y003743D01*
X025031Y003803D01*
X025091Y003803D01*
X025151Y003743D01*
X025151Y003623D01*
X025091Y003563D01*
X024971Y003563D01*
X025091Y003435D02*
X025151Y003375D01*
X025151Y003255D01*
X025091Y003194D01*
X024851Y003194D01*
X024791Y003255D01*
X024791Y003375D01*
X024851Y003435D01*
X028934Y013921D02*
X028934Y014281D01*
X029115Y014281D01*
X029175Y014221D01*
X029175Y014101D01*
X029115Y014041D01*
X028934Y014041D01*
X029055Y014041D02*
X029175Y013921D01*
X029303Y013981D02*
X029363Y013921D01*
X029483Y013921D01*
X029543Y013981D01*
X029543Y014221D01*
X029483Y014281D01*
X029363Y014281D01*
X029303Y014221D01*
X029303Y014161D01*
X029363Y014101D01*
X029543Y014101D01*
X029565Y015121D02*
X029324Y015121D01*
X029445Y015121D02*
X029445Y015481D01*
X029324Y015361D01*
X029196Y015301D02*
X029136Y015241D01*
X028956Y015241D01*
X028956Y015121D02*
X028956Y015481D01*
X029136Y015481D01*
X029196Y015421D01*
X029196Y015301D01*
X029076Y015241D02*
X029196Y015121D01*
X029693Y015121D02*
X029933Y015361D01*
X029933Y015421D01*
X029873Y015481D01*
X029753Y015481D01*
X029693Y015421D01*
X029693Y015121D02*
X029933Y015121D01*
X031064Y017866D02*
X031270Y017866D01*
X031410Y017866D02*
X031410Y018276D01*
X031270Y018140D02*
X031064Y018140D01*
X030996Y018071D01*
X030996Y017934D01*
X031064Y017866D01*
X031410Y018003D02*
X031616Y018140D01*
X031410Y018003D02*
X031616Y017866D01*
X030903Y019196D02*
X030596Y019196D01*
X028428Y019246D02*
X028121Y019246D01*
X028275Y019400D02*
X028275Y019093D01*
X027620Y018276D02*
X027620Y017866D01*
X027414Y017866D01*
X027346Y017934D01*
X027346Y018071D01*
X027414Y018140D01*
X027620Y018140D01*
X027829Y018140D02*
X027966Y018140D01*
X028034Y018071D01*
X028034Y017866D01*
X027829Y017866D01*
X027760Y017934D01*
X027829Y018003D01*
X028034Y018003D01*
X026770Y019981D02*
X026529Y019981D01*
X026770Y020221D01*
X026770Y020281D01*
X026710Y020341D01*
X026589Y020341D01*
X026529Y020281D01*
X026401Y020341D02*
X026281Y020341D01*
X026341Y020341D02*
X026341Y020041D01*
X026281Y019981D01*
X026221Y019981D01*
X026161Y020041D01*
D12*
X025180Y019609D02*
X025180Y018979D01*
X024707Y018979D01*
X024707Y019530D01*
X022975Y019530D01*
X022975Y018979D01*
X022503Y018979D01*
X022503Y019609D01*
X022503Y020672D02*
X025180Y020672D01*
X020921Y019888D02*
X020921Y018510D01*
X020606Y018904D02*
X020134Y018904D01*
X020606Y018904D02*
X020606Y019888D01*
X020921Y019888D01*
X018559Y018904D02*
X018087Y018904D01*
X018087Y019888D01*
X017772Y019888D01*
X017772Y018510D01*
X016142Y017938D02*
X015748Y017938D01*
X015354Y017938D02*
X014961Y017938D01*
X014567Y017938D02*
X014173Y017938D01*
X013780Y017938D02*
X013386Y017938D01*
X012992Y017938D02*
X012598Y017938D01*
X012205Y017938D02*
X011811Y017938D01*
X011417Y017938D02*
X011024Y017938D01*
X010630Y017938D02*
X010236Y017938D01*
X009843Y017938D02*
X009449Y017938D01*
X009055Y017938D02*
X008661Y017938D01*
X008268Y017938D02*
X007874Y017938D01*
X007874Y017937D02*
X007821Y017935D01*
X007769Y017930D01*
X007717Y017921D01*
X007666Y017909D01*
X007616Y017893D01*
X007566Y017874D01*
X007519Y017852D01*
X007472Y017827D01*
X007087Y017150D02*
X007087Y016757D01*
X007087Y016363D02*
X007087Y015969D01*
X007087Y015575D02*
X007087Y015182D01*
X007087Y014788D02*
X007087Y014394D01*
X007087Y014001D02*
X007087Y013607D01*
X007087Y013213D02*
X007087Y012820D01*
X007087Y012426D02*
X007087Y012032D01*
X007087Y011638D02*
X007087Y011245D01*
X007087Y010851D02*
X007087Y010457D01*
X007087Y010064D02*
X007087Y009670D01*
X007087Y009276D02*
X007087Y008883D01*
X007087Y008489D02*
X007087Y008095D01*
X007087Y007701D02*
X007087Y007308D01*
X007087Y006914D02*
X007087Y006520D01*
X007087Y006127D02*
X007087Y005733D01*
X007087Y005339D02*
X007087Y004946D01*
X007089Y004893D01*
X007094Y004841D01*
X007103Y004789D01*
X007115Y004738D01*
X007131Y004688D01*
X007150Y004638D01*
X007172Y004591D01*
X007197Y004544D01*
X007874Y004158D02*
X008268Y004158D01*
X008661Y004158D02*
X009055Y004158D01*
X009449Y004158D02*
X009843Y004158D01*
X010236Y004158D02*
X010630Y004158D01*
X011024Y004158D02*
X011417Y004158D01*
X011811Y004158D02*
X012205Y004158D01*
X012598Y004158D02*
X012992Y004158D01*
X013386Y004158D02*
X013780Y004158D01*
X014173Y004158D02*
X014567Y004158D01*
X014961Y004158D02*
X015354Y004158D01*
X015748Y004158D02*
X016142Y004158D01*
X016142Y004159D02*
X016195Y004161D01*
X016247Y004166D01*
X016299Y004175D01*
X016350Y004187D01*
X016400Y004203D01*
X016450Y004222D01*
X016497Y004244D01*
X016544Y004269D01*
X016929Y004946D02*
X016929Y005339D01*
X016929Y005733D02*
X016929Y006127D01*
X016929Y006520D02*
X016929Y006914D01*
X016929Y007308D02*
X016929Y007701D01*
X016929Y008095D02*
X016929Y008489D01*
X016929Y008883D02*
X016929Y009276D01*
X016929Y009670D02*
X016929Y010064D01*
X016929Y010457D02*
X016929Y010851D01*
X016929Y011245D02*
X016929Y011638D01*
X016929Y012032D02*
X016929Y012426D01*
X016929Y012820D02*
X016929Y013213D01*
X016929Y013607D02*
X016929Y014001D01*
X016929Y014394D02*
X016929Y014788D01*
X016929Y015182D02*
X016929Y015575D01*
X016929Y015969D02*
X016929Y016363D01*
X016929Y016757D02*
X016929Y017150D01*
X016927Y017203D01*
X016922Y017255D01*
X016913Y017307D01*
X016901Y017358D01*
X016885Y017408D01*
X016866Y017458D01*
X016844Y017505D01*
X016819Y017552D01*
X016544Y017827D02*
X016497Y017852D01*
X016450Y017874D01*
X016400Y017893D01*
X016350Y017909D01*
X016299Y017921D01*
X016247Y017930D01*
X016195Y017935D01*
X016142Y017937D01*
X018559Y016935D02*
X020134Y016935D01*
X021562Y016897D02*
X021562Y016559D01*
X022016Y016409D02*
X022228Y016409D01*
X022682Y016559D02*
X022682Y016897D01*
X022191Y015441D02*
X021691Y015441D01*
X021691Y014841D02*
X022191Y014841D01*
X025501Y014870D02*
X025501Y014532D01*
X025955Y015020D02*
X026167Y015020D01*
X026621Y014870D02*
X026621Y014532D01*
X025553Y008911D02*
X022089Y008911D01*
X021931Y008753D01*
X021931Y005289D01*
X022089Y005131D01*
X025553Y005131D01*
X025711Y005289D01*
X025711Y008753D01*
X025553Y008911D01*
X016929Y004946D02*
X016927Y004893D01*
X016922Y004841D01*
X016913Y004789D01*
X016901Y004738D01*
X016885Y004688D01*
X016866Y004638D01*
X016844Y004591D01*
X016819Y004544D01*
X007874Y004159D02*
X007821Y004161D01*
X007769Y004166D01*
X007717Y004175D01*
X007666Y004187D01*
X007616Y004203D01*
X007566Y004222D01*
X007519Y004244D01*
X007472Y004269D01*
X005092Y005090D02*
X004777Y005090D01*
X004777Y005326D01*
X004777Y005956D02*
X004777Y006192D01*
X005092Y006192D01*
X005092Y008840D02*
X004777Y008840D01*
X004777Y009076D01*
X004777Y009706D02*
X004777Y009942D01*
X005092Y009942D01*
X005092Y012090D02*
X004777Y012090D01*
X004777Y012326D01*
X004777Y012956D02*
X004777Y013192D01*
X005092Y013192D01*
X005092Y015340D02*
X004777Y015340D01*
X004777Y015576D01*
X004777Y016206D02*
X004777Y016442D01*
X005092Y016442D01*
X007087Y017150D02*
X007089Y017203D01*
X007094Y017255D01*
X007103Y017307D01*
X007115Y017358D01*
X007131Y017408D01*
X007150Y017458D01*
X007172Y017505D01*
X007197Y017552D01*
X005092Y018590D02*
X004777Y018590D01*
X004777Y018826D01*
X004777Y019456D02*
X004777Y019692D01*
X005092Y019692D01*
X005092Y002942D02*
X004777Y002942D01*
X004777Y002706D01*
X004777Y002076D02*
X004777Y001840D01*
X005092Y001840D01*
D13*
X011251Y001998D02*
X011368Y001881D01*
X011601Y001881D01*
X011718Y001765D01*
X011718Y001648D01*
X011601Y001531D01*
X011368Y001531D01*
X011251Y001648D01*
X011251Y001998D02*
X011251Y002115D01*
X011368Y002232D01*
X011601Y002232D01*
X011718Y002115D01*
X011951Y001998D02*
X012068Y001998D01*
X012184Y001881D01*
X012301Y001998D01*
X012418Y001881D01*
X012418Y001531D01*
X012184Y001531D02*
X012184Y001881D01*
X011951Y001998D02*
X011951Y001531D01*
X012651Y001648D02*
X012767Y001765D01*
X013118Y001765D01*
X013118Y001881D02*
X013118Y001531D01*
X012767Y001531D01*
X012651Y001648D01*
X013001Y001998D02*
X013118Y001881D01*
X013001Y001998D02*
X012767Y001998D01*
X013350Y002232D02*
X013467Y002232D01*
X013467Y001531D01*
X013350Y001531D02*
X013584Y001531D01*
X013817Y001531D02*
X014050Y001531D01*
X013934Y001531D02*
X013934Y002232D01*
X013817Y002232D01*
X014283Y002232D02*
X014634Y002232D01*
X014750Y002115D01*
X014750Y001881D01*
X014634Y001765D01*
X014283Y001765D01*
X014517Y001765D02*
X014750Y001531D01*
X014983Y001648D02*
X014983Y001881D01*
X015100Y001998D01*
X015333Y001998D01*
X015450Y001881D01*
X015450Y001648D01*
X015333Y001531D01*
X015100Y001531D01*
X014983Y001648D01*
X015683Y001648D02*
X015800Y001531D01*
X016033Y001531D01*
X016150Y001648D01*
X016150Y001881D01*
X016033Y001998D01*
X015800Y001998D01*
X015683Y001881D01*
X015683Y001648D01*
X016383Y001531D02*
X016383Y001998D01*
X016499Y001998D01*
X016616Y001881D01*
X016733Y001998D01*
X016850Y001881D01*
X016850Y001531D01*
X017082Y001531D02*
X017549Y001531D01*
X017782Y001531D02*
X018016Y001531D01*
X017899Y001531D02*
X017899Y002232D01*
X017782Y002232D01*
X018365Y001998D02*
X018599Y001998D01*
X018716Y001881D01*
X018716Y001531D01*
X018365Y001531D01*
X018249Y001648D01*
X018365Y001765D01*
X018716Y001765D01*
X018948Y001998D02*
X019299Y001998D01*
X019416Y001881D01*
X019416Y001648D01*
X019299Y001531D01*
X018948Y001531D01*
X018948Y002232D01*
X019648Y001881D02*
X019765Y001998D01*
X020115Y001998D01*
X019999Y001765D02*
X019765Y001765D01*
X019648Y001881D01*
X019648Y001531D02*
X019999Y001531D01*
X020115Y001648D01*
X019999Y001765D01*
X020348Y001648D02*
X020465Y001648D01*
X020465Y001531D01*
X020348Y001531D01*
X020348Y001648D01*
X020698Y001648D02*
X020698Y001881D01*
X020815Y001998D01*
X021165Y001998D01*
X021398Y001881D02*
X021398Y001648D01*
X021514Y001531D01*
X021748Y001531D01*
X021865Y001648D01*
X021865Y001881D01*
X021748Y001998D01*
X021514Y001998D01*
X021398Y001881D01*
X021165Y001531D02*
X020815Y001531D01*
X020698Y001648D01*
X022097Y001531D02*
X022097Y001998D01*
X022214Y001998D01*
X022331Y001881D01*
X022448Y001998D01*
X022564Y001881D01*
X022564Y001531D01*
X022331Y001531D02*
X022331Y001881D01*
X022797Y001531D02*
X023264Y002232D01*
X023497Y002232D02*
X023497Y001531D01*
X023497Y001765D02*
X023847Y001998D01*
X024080Y001998D02*
X024197Y001998D01*
X024197Y001531D01*
X024080Y001531D02*
X024314Y001531D01*
X024547Y001531D02*
X024547Y001998D01*
X024663Y001998D01*
X024780Y001881D01*
X024897Y001998D01*
X025014Y001881D01*
X025014Y001531D01*
X024780Y001531D02*
X024780Y001881D01*
X025246Y001881D02*
X025246Y001648D01*
X025363Y001531D01*
X025713Y001531D01*
X025946Y001648D02*
X026063Y001765D01*
X026413Y001765D01*
X026413Y001881D02*
X026413Y001531D01*
X026063Y001531D01*
X025946Y001648D01*
X026296Y001998D02*
X026413Y001881D01*
X026296Y001998D02*
X026063Y001998D01*
X025713Y001998D02*
X025363Y001998D01*
X025246Y001881D01*
X024197Y002232D02*
X024197Y002348D01*
X023847Y001531D02*
X023497Y001765D01*
X024225Y003383D02*
X024225Y003619D01*
X024697Y003619D02*
X024697Y003383D01*
X026646Y001998D02*
X026646Y001531D01*
X026646Y001765D02*
X026879Y001998D01*
X026996Y001998D01*
X027229Y001881D02*
X027346Y001998D01*
X027696Y001998D01*
X027696Y002232D02*
X027696Y001531D01*
X027346Y001531D01*
X027229Y001648D01*
X027229Y001881D01*
X020359Y005805D02*
X020123Y005805D01*
X020123Y006277D02*
X020359Y006277D01*
X023783Y009905D02*
X024019Y009905D01*
X024019Y010377D02*
X023783Y010377D01*
X026983Y011185D02*
X027219Y011185D01*
X027219Y011657D02*
X026983Y011657D01*
X026983Y012225D02*
X027219Y012225D01*
X027219Y012697D02*
X026983Y012697D01*
X024979Y013345D02*
X024743Y013345D01*
X024743Y013817D02*
X024979Y013817D01*
X024865Y014583D02*
X024865Y014819D01*
X025337Y014819D02*
X025337Y014583D01*
X023527Y016403D02*
X023527Y016639D01*
X023055Y016639D02*
X023055Y016403D01*
X022599Y017895D02*
X022363Y017895D01*
X022363Y018367D02*
X022599Y018367D01*
X027833Y009169D02*
X028069Y009169D01*
X028069Y008697D02*
X027833Y008697D01*
X027379Y008217D02*
X027143Y008217D01*
X027143Y007745D02*
X027379Y007745D01*
X029021Y007981D02*
X029021Y007341D01*
X029181Y007341D01*
X029501Y007341D02*
X029661Y007341D01*
X029981Y007341D02*
X030141Y007341D01*
X030461Y007341D02*
X030621Y007341D01*
X030941Y007341D02*
X031101Y007341D01*
X031101Y008861D01*
X030941Y008861D01*
X030621Y008861D02*
X030461Y008861D01*
X030141Y008861D02*
X029981Y008861D01*
X029661Y008861D02*
X029501Y008861D01*
X029181Y008861D02*
X029021Y008861D01*
X029021Y008301D01*
X029021Y007981D01*
X029045Y007983D01*
X029068Y007988D01*
X029090Y007997D01*
X029111Y008009D01*
X029130Y008024D01*
X029146Y008041D01*
X029160Y008061D01*
X029170Y008083D01*
X029177Y008105D01*
X029181Y008129D01*
X029181Y008153D01*
X029177Y008177D01*
X029170Y008199D01*
X029160Y008221D01*
X029146Y008241D01*
X029130Y008258D01*
X029111Y008273D01*
X029090Y008285D01*
X029068Y008294D01*
X029045Y008299D01*
X029021Y008301D01*
X017082Y002232D02*
X017082Y001531D01*
X016616Y001531D02*
X016616Y001881D01*
X014283Y001531D02*
X014283Y002232D01*
D14*
X014515Y000908D02*
X014515Y000846D01*
X014515Y000723D02*
X014515Y000476D01*
X014453Y000476D02*
X014577Y000476D01*
X014822Y000476D02*
X014699Y000723D01*
X014515Y000723D02*
X014453Y000723D01*
X014331Y000723D02*
X014208Y000723D01*
X014270Y000785D02*
X014270Y000538D01*
X014331Y000476D01*
X014086Y000476D02*
X014086Y000661D01*
X014025Y000723D01*
X013901Y000723D01*
X013901Y000600D02*
X014086Y000600D01*
X014086Y000476D02*
X013901Y000476D01*
X013840Y000538D01*
X013901Y000600D01*
X013718Y000600D02*
X013471Y000600D01*
X013471Y000661D02*
X013471Y000538D01*
X013533Y000476D01*
X013656Y000476D01*
X013718Y000600D02*
X013718Y000661D01*
X013656Y000723D01*
X013533Y000723D01*
X013471Y000661D01*
X013350Y000723D02*
X013288Y000723D01*
X013164Y000600D01*
X013164Y000723D02*
X013164Y000476D01*
X013043Y000476D02*
X012858Y000476D01*
X012796Y000538D01*
X012796Y000661D01*
X012858Y000723D01*
X013043Y000723D01*
X014822Y000476D02*
X014946Y000723D01*
X015067Y000661D02*
X015129Y000723D01*
X015252Y000723D01*
X015314Y000661D01*
X015314Y000600D01*
X015067Y000600D01*
X015067Y000661D02*
X015067Y000538D01*
X015129Y000476D01*
X015252Y000476D01*
X015436Y000538D02*
X015436Y000661D01*
X015497Y000723D01*
X015682Y000723D01*
X015804Y000661D02*
X015804Y000538D01*
X015866Y000476D01*
X015989Y000476D01*
X016051Y000538D01*
X016051Y000661D01*
X015989Y000723D01*
X015866Y000723D01*
X015804Y000661D01*
X015682Y000476D02*
X015497Y000476D01*
X015436Y000538D01*
X016172Y000476D02*
X016172Y000723D01*
X016234Y000723D01*
X016296Y000661D01*
X016357Y000723D01*
X016419Y000661D01*
X016419Y000476D01*
X016540Y000476D02*
X016540Y000723D01*
X016602Y000723D01*
X016664Y000661D01*
X016726Y000723D01*
X016787Y000661D01*
X016787Y000476D01*
X016664Y000476D02*
X016664Y000661D01*
X016909Y000661D02*
X016909Y000538D01*
X016970Y000476D01*
X017094Y000476D01*
X017156Y000538D01*
X017156Y000661D01*
X017094Y000723D01*
X016970Y000723D01*
X016909Y000661D01*
X017277Y000723D02*
X017277Y000476D01*
X017524Y000476D02*
X017524Y000661D01*
X017462Y000723D01*
X017277Y000723D01*
X017645Y000661D02*
X017707Y000723D01*
X017892Y000723D01*
X017831Y000600D02*
X017707Y000600D01*
X017645Y000661D01*
X017645Y000476D02*
X017831Y000476D01*
X017892Y000538D01*
X017831Y000600D01*
X018014Y000538D02*
X018075Y000538D01*
X018075Y000476D01*
X018014Y000476D01*
X018014Y000538D01*
X018198Y000538D02*
X018260Y000476D01*
X018383Y000476D01*
X018445Y000538D01*
X018445Y000661D01*
X018383Y000723D01*
X018260Y000723D01*
X018198Y000661D01*
X018198Y000538D01*
X018566Y000600D02*
X018690Y000723D01*
X018751Y000723D01*
X018873Y000661D02*
X018873Y000538D01*
X018935Y000476D01*
X019120Y000476D01*
X019120Y000414D02*
X019120Y000723D01*
X018935Y000723D01*
X018873Y000661D01*
X018566Y000723D02*
X018566Y000476D01*
X018996Y000353D02*
X019058Y000353D01*
X019120Y000414D01*
X019241Y000476D02*
X019488Y000846D01*
X019610Y000846D02*
X019671Y000846D01*
X019671Y000476D01*
X019610Y000476D02*
X019733Y000476D01*
X019855Y000476D02*
X019979Y000476D01*
X019917Y000476D02*
X019917Y000723D01*
X019855Y000723D01*
X019917Y000846D02*
X019917Y000908D01*
X020162Y000723D02*
X020101Y000661D01*
X020101Y000538D01*
X020162Y000476D01*
X020348Y000476D01*
X020469Y000538D02*
X020469Y000661D01*
X020531Y000723D01*
X020654Y000723D01*
X020716Y000661D01*
X020716Y000600D01*
X020469Y000600D01*
X020469Y000538D02*
X020531Y000476D01*
X020654Y000476D01*
X020837Y000476D02*
X020837Y000723D01*
X021022Y000723D01*
X021084Y000661D01*
X021084Y000476D01*
X021206Y000476D02*
X021391Y000476D01*
X021452Y000538D01*
X021391Y000600D01*
X021267Y000600D01*
X021206Y000661D01*
X021267Y000723D01*
X021452Y000723D01*
X021574Y000661D02*
X021636Y000723D01*
X021759Y000723D01*
X021821Y000661D01*
X021821Y000600D01*
X021574Y000600D01*
X021574Y000661D02*
X021574Y000538D01*
X021636Y000476D01*
X021759Y000476D01*
X021942Y000476D02*
X022127Y000476D01*
X022189Y000538D01*
X022127Y000600D01*
X022004Y000600D01*
X021942Y000661D01*
X022004Y000723D01*
X022189Y000723D01*
X022311Y000476D02*
X022557Y000846D01*
X022679Y000846D02*
X022679Y000476D01*
X022864Y000476D01*
X022926Y000538D01*
X022926Y000661D01*
X022864Y000723D01*
X022679Y000723D01*
X023047Y000723D02*
X023047Y000538D01*
X023109Y000476D01*
X023294Y000476D01*
X023294Y000414D02*
X023232Y000353D01*
X023171Y000353D01*
X023294Y000414D02*
X023294Y000723D01*
X023415Y000661D02*
X023662Y000661D01*
X023784Y000661D02*
X023845Y000600D01*
X023969Y000600D01*
X024031Y000538D01*
X023969Y000476D01*
X023784Y000476D01*
X023784Y000661D02*
X023845Y000723D01*
X024031Y000723D01*
X024214Y000723D02*
X024337Y000723D01*
X024399Y000661D01*
X024399Y000476D01*
X024214Y000476D01*
X024152Y000538D01*
X024214Y000600D01*
X024399Y000600D01*
X024520Y000476D02*
X024767Y000846D01*
X024889Y000785D02*
X024950Y000846D01*
X025074Y000846D01*
X025136Y000785D01*
X025136Y000723D01*
X025074Y000661D01*
X025136Y000600D01*
X025136Y000538D01*
X025074Y000476D01*
X024950Y000476D01*
X024889Y000538D01*
X025012Y000661D02*
X025074Y000661D01*
X025257Y000538D02*
X025319Y000538D01*
X025319Y000476D01*
X025257Y000476D01*
X025257Y000538D01*
X025441Y000538D02*
X025688Y000785D01*
X025688Y000538D01*
X025626Y000476D01*
X025503Y000476D01*
X025441Y000538D01*
X025441Y000785D01*
X025503Y000846D01*
X025626Y000846D01*
X025688Y000785D01*
X020348Y000723D02*
X020162Y000723D01*
X016296Y000661D02*
X016296Y000476D01*
D15*
X019541Y004791D02*
X019541Y005491D01*
X020941Y005491D01*
X020941Y004791D01*
X019541Y004791D01*
X019221Y007671D02*
X019221Y008371D01*
X020621Y008371D01*
X020621Y007671D01*
X019221Y007671D01*
X023364Y010936D02*
X024899Y010936D01*
X025844Y011644D02*
X025844Y011999D01*
X025332Y011959D02*
X024860Y011959D01*
X024860Y012392D01*
X024899Y012550D02*
X024545Y012550D01*
X024545Y011841D01*
X024387Y011841D01*
X023915Y011841D02*
X023757Y011841D01*
X023757Y011132D01*
X023364Y011132D01*
X022458Y011644D02*
X022458Y011999D01*
X023364Y012747D02*
X024899Y012747D01*
X022641Y013791D02*
X021241Y013791D01*
X021241Y014491D01*
X022641Y014491D01*
X022641Y013791D01*
X027441Y013871D02*
X027441Y014571D01*
X028841Y014571D01*
X028841Y013871D01*
X027441Y013871D01*
X027441Y015151D02*
X027441Y015851D01*
X028841Y015851D01*
X028841Y015151D01*
X027441Y015151D01*
X026851Y016871D02*
X026851Y020371D01*
X027551Y020371D01*
X027551Y020871D01*
X031451Y020871D01*
X031451Y020371D01*
X032151Y020371D01*
X032151Y016871D01*
X026851Y016871D01*
X027551Y019621D02*
X031451Y019621D01*
X031451Y020371D01*
X027551Y020371D02*
X027551Y019621D01*
X005629Y020354D02*
X004229Y020354D01*
X004229Y021054D01*
X005629Y021054D01*
X005629Y020354D01*
X002753Y020291D02*
X001353Y020291D01*
X001353Y020991D01*
X002753Y020991D01*
X002753Y020291D01*
X004629Y018341D02*
X005329Y018341D01*
X005329Y016941D01*
X004629Y016941D01*
X004629Y018341D01*
X002753Y017741D02*
X002753Y017041D01*
X001353Y017041D01*
X001353Y017741D01*
X002753Y017741D01*
X004629Y015091D02*
X005329Y015091D01*
X005329Y013691D01*
X004629Y013691D01*
X004629Y015091D01*
X002753Y014491D02*
X002753Y013791D01*
X001353Y013791D01*
X001353Y014491D01*
X002753Y014491D01*
X004629Y011841D02*
X005329Y011841D01*
X005329Y010441D01*
X004629Y010441D01*
X004629Y011841D01*
X002753Y011241D02*
X002753Y010541D01*
X001353Y010541D01*
X001353Y011241D01*
X002753Y011241D01*
X004629Y008341D02*
X005329Y008341D01*
X005329Y006941D01*
X004629Y006941D01*
X004629Y008341D01*
X002753Y007741D02*
X002753Y007041D01*
X001353Y007041D01*
X001353Y007741D01*
X002753Y007741D01*
X004629Y004841D02*
X005329Y004841D01*
X005329Y003441D01*
X004629Y003441D01*
X004629Y004841D01*
X002753Y004241D02*
X002753Y003541D01*
X001353Y003541D01*
X001353Y004241D01*
X002753Y004241D01*
X004504Y001716D02*
X005204Y001716D01*
X005204Y000316D01*
X004504Y000316D01*
X004504Y001716D01*
X002753Y001241D02*
X002753Y000541D01*
X001353Y000541D01*
X001353Y001241D01*
X002753Y001241D01*
D16*
X022135Y008596D02*
X022137Y008616D01*
X022142Y008636D01*
X022152Y008654D01*
X022164Y008671D01*
X022179Y008685D01*
X022197Y008695D01*
X022216Y008703D01*
X022236Y008707D01*
X022256Y008707D01*
X022276Y008703D01*
X022295Y008695D01*
X022313Y008685D01*
X022328Y008671D01*
X022340Y008654D01*
X022350Y008636D01*
X022355Y008616D01*
X022357Y008596D01*
X022355Y008576D01*
X022350Y008556D01*
X022340Y008538D01*
X022328Y008521D01*
X022313Y008507D01*
X022295Y008497D01*
X022276Y008489D01*
X022256Y008485D01*
X022236Y008485D01*
X022216Y008489D01*
X022197Y008497D01*
X022179Y008507D01*
X022164Y008521D01*
X022152Y008538D01*
X022142Y008556D01*
X022137Y008576D01*
X022135Y008596D01*
X023915Y011684D02*
X023915Y011841D01*
X023915Y011999D01*
X024072Y012038D02*
X024072Y011644D01*
X024230Y011644D01*
X024230Y012038D01*
X024072Y012038D01*
X024387Y011999D02*
X024387Y011841D01*
X024387Y011684D01*
D17*
X027204Y018621D02*
X027206Y018648D01*
X027212Y018675D01*
X027221Y018701D01*
X027234Y018725D01*
X027250Y018748D01*
X027269Y018767D01*
X027291Y018784D01*
X027315Y018798D01*
X027340Y018808D01*
X027367Y018815D01*
X027394Y018818D01*
X027422Y018817D01*
X027449Y018812D01*
X027475Y018804D01*
X027499Y018792D01*
X027522Y018776D01*
X027543Y018758D01*
X027560Y018737D01*
X027575Y018713D01*
X027586Y018688D01*
X027594Y018662D01*
X027598Y018635D01*
X027598Y018607D01*
X027594Y018580D01*
X027586Y018554D01*
X027575Y018529D01*
X027560Y018505D01*
X027543Y018484D01*
X027522Y018466D01*
X027500Y018450D01*
X027475Y018438D01*
X027449Y018430D01*
X027422Y018425D01*
X027394Y018424D01*
X027367Y018427D01*
X027340Y018434D01*
X027315Y018444D01*
X027291Y018458D01*
X027269Y018475D01*
X027250Y018494D01*
X027234Y018517D01*
X027221Y018541D01*
X027212Y018567D01*
X027206Y018594D01*
X027204Y018621D01*
X031404Y018621D02*
X031406Y018648D01*
X031412Y018675D01*
X031421Y018701D01*
X031434Y018725D01*
X031450Y018748D01*
X031469Y018767D01*
X031491Y018784D01*
X031515Y018798D01*
X031540Y018808D01*
X031567Y018815D01*
X031594Y018818D01*
X031622Y018817D01*
X031649Y018812D01*
X031675Y018804D01*
X031699Y018792D01*
X031722Y018776D01*
X031743Y018758D01*
X031760Y018737D01*
X031775Y018713D01*
X031786Y018688D01*
X031794Y018662D01*
X031798Y018635D01*
X031798Y018607D01*
X031794Y018580D01*
X031786Y018554D01*
X031775Y018529D01*
X031760Y018505D01*
X031743Y018484D01*
X031722Y018466D01*
X031700Y018450D01*
X031675Y018438D01*
X031649Y018430D01*
X031622Y018425D01*
X031594Y018424D01*
X031567Y018427D01*
X031540Y018434D01*
X031515Y018444D01*
X031491Y018458D01*
X031469Y018475D01*
X031450Y018494D01*
X031434Y018517D01*
X031421Y018541D01*
X031412Y018567D01*
X031406Y018594D01*
X031404Y018621D01*
X010475Y001421D02*
X010477Y001447D01*
X010483Y001473D01*
X010493Y001498D01*
X010506Y001521D01*
X010522Y001541D01*
X010542Y001559D01*
X010564Y001574D01*
X010587Y001586D01*
X010613Y001594D01*
X010639Y001598D01*
X010665Y001598D01*
X010691Y001594D01*
X010717Y001586D01*
X010741Y001574D01*
X010762Y001559D01*
X010782Y001541D01*
X010798Y001521D01*
X010811Y001498D01*
X010821Y001473D01*
X010827Y001447D01*
X010829Y001421D01*
X010827Y001395D01*
X010821Y001369D01*
X010811Y001344D01*
X010798Y001321D01*
X010782Y001301D01*
X010762Y001283D01*
X010740Y001268D01*
X010717Y001256D01*
X010691Y001248D01*
X010665Y001244D01*
X010639Y001244D01*
X010613Y001248D01*
X010587Y001256D01*
X010563Y001268D01*
X010542Y001283D01*
X010522Y001301D01*
X010506Y001321D01*
X010493Y001344D01*
X010483Y001369D01*
X010477Y001395D01*
X010475Y001421D01*
X009294Y001421D02*
X009296Y001447D01*
X009302Y001473D01*
X009312Y001498D01*
X009325Y001521D01*
X009341Y001541D01*
X009361Y001559D01*
X009383Y001574D01*
X009406Y001586D01*
X009432Y001594D01*
X009458Y001598D01*
X009484Y001598D01*
X009510Y001594D01*
X009536Y001586D01*
X009560Y001574D01*
X009581Y001559D01*
X009601Y001541D01*
X009617Y001521D01*
X009630Y001498D01*
X009640Y001473D01*
X009646Y001447D01*
X009648Y001421D01*
X009646Y001395D01*
X009640Y001369D01*
X009630Y001344D01*
X009617Y001321D01*
X009601Y001301D01*
X009581Y001283D01*
X009559Y001268D01*
X009536Y001256D01*
X009510Y001248D01*
X009484Y001244D01*
X009458Y001244D01*
X009432Y001248D01*
X009406Y001256D01*
X009382Y001268D01*
X009361Y001283D01*
X009341Y001301D01*
X009325Y001321D01*
X009312Y001344D01*
X009302Y001369D01*
X009296Y001395D01*
X009294Y001421D01*
X007115Y001421D02*
X007117Y001447D01*
X007123Y001473D01*
X007133Y001498D01*
X007146Y001521D01*
X007162Y001541D01*
X007182Y001559D01*
X007204Y001574D01*
X007227Y001586D01*
X007253Y001594D01*
X007279Y001598D01*
X007305Y001598D01*
X007331Y001594D01*
X007357Y001586D01*
X007381Y001574D01*
X007402Y001559D01*
X007422Y001541D01*
X007438Y001521D01*
X007451Y001498D01*
X007461Y001473D01*
X007467Y001447D01*
X007469Y001421D01*
X007467Y001395D01*
X007461Y001369D01*
X007451Y001344D01*
X007438Y001321D01*
X007422Y001301D01*
X007402Y001283D01*
X007380Y001268D01*
X007357Y001256D01*
X007331Y001248D01*
X007305Y001244D01*
X007279Y001244D01*
X007253Y001248D01*
X007227Y001256D01*
X007203Y001268D01*
X007182Y001283D01*
X007162Y001301D01*
X007146Y001321D01*
X007133Y001344D01*
X007123Y001369D01*
X007117Y001395D01*
X007115Y001421D01*
X005934Y001421D02*
X005936Y001447D01*
X005942Y001473D01*
X005952Y001498D01*
X005965Y001521D01*
X005981Y001541D01*
X006001Y001559D01*
X006023Y001574D01*
X006046Y001586D01*
X006072Y001594D01*
X006098Y001598D01*
X006124Y001598D01*
X006150Y001594D01*
X006176Y001586D01*
X006200Y001574D01*
X006221Y001559D01*
X006241Y001541D01*
X006257Y001521D01*
X006270Y001498D01*
X006280Y001473D01*
X006286Y001447D01*
X006288Y001421D01*
X006286Y001395D01*
X006280Y001369D01*
X006270Y001344D01*
X006257Y001321D01*
X006241Y001301D01*
X006221Y001283D01*
X006199Y001268D01*
X006176Y001256D01*
X006150Y001248D01*
X006124Y001244D01*
X006098Y001244D01*
X006072Y001248D01*
X006046Y001256D01*
X006022Y001268D01*
X006001Y001283D01*
X005981Y001301D01*
X005965Y001321D01*
X005952Y001344D01*
X005942Y001369D01*
X005936Y001395D01*
X005934Y001421D01*
D18*
X028886Y017006D02*
X028886Y017537D01*
X029151Y017537D01*
X029240Y017448D01*
X029240Y017271D01*
X029151Y017183D01*
X028886Y017183D01*
X029439Y017006D02*
X029704Y017006D01*
X029792Y017094D01*
X029792Y017448D01*
X029704Y017537D01*
X029439Y017537D01*
X029439Y017006D01*
X029991Y017006D02*
X030168Y017006D01*
X030079Y017006D02*
X030079Y017537D01*
X029991Y017537D02*
X030168Y017537D01*
D19*
X030901Y000554D03*
D20*
X030901Y000567D03*
D21*
X030895Y000580D03*
D22*
X030888Y000593D03*
D23*
X030882Y000606D03*
D24*
X030875Y000619D03*
D25*
X030875Y000632D03*
D26*
X030875Y000645D03*
D27*
X030862Y000658D03*
D28*
X030862Y000671D03*
D29*
X030862Y000684D03*
D30*
X030849Y000697D03*
D31*
X030849Y000710D03*
X031967Y002166D03*
D32*
X030043Y003479D03*
X030043Y003505D03*
X030043Y003518D03*
X030043Y003531D03*
X030849Y000723D03*
D33*
X030843Y000736D03*
X030180Y001230D03*
X030128Y001269D03*
X030128Y002855D03*
X030115Y002881D03*
X030115Y002894D03*
X030115Y002920D03*
X030115Y002933D03*
X030115Y002946D03*
X030102Y002985D03*
X030102Y002998D03*
X030102Y003011D03*
X030102Y003024D03*
X029582Y003154D03*
X029582Y003180D03*
X029582Y003193D03*
X029595Y003258D03*
X029595Y003271D03*
X029595Y003284D03*
X029608Y003375D03*
X029608Y003388D03*
X029543Y002894D03*
X029543Y002881D03*
X029543Y002868D03*
X029543Y002855D03*
D34*
X030121Y002868D03*
X030043Y001334D03*
X030056Y001321D03*
X030238Y001191D03*
X030251Y001178D03*
X030303Y001139D03*
X030316Y001126D03*
X030446Y001035D03*
X030498Y000996D03*
X030511Y000983D03*
X030576Y000944D03*
X030628Y000905D03*
X030693Y000853D03*
X030706Y000840D03*
X030758Y000801D03*
X030836Y000749D03*
D35*
X030810Y000762D03*
X030732Y000827D03*
X030550Y000957D03*
X030459Y001022D03*
X030199Y001217D03*
D36*
X030212Y001204D03*
X030264Y001165D03*
X030355Y001100D03*
X030394Y001074D03*
X030407Y001061D03*
X030420Y001048D03*
X030472Y001009D03*
X030589Y000931D03*
X030602Y000918D03*
X030680Y000866D03*
X030745Y000814D03*
X030784Y000788D03*
X030797Y000775D03*
X030160Y001243D03*
X030147Y001256D03*
X030095Y001295D03*
X031200Y003323D03*
X031200Y003336D03*
X031642Y003648D03*
X031642Y003661D03*
D37*
X030089Y003128D03*
X030089Y003115D03*
X029569Y003089D03*
X029569Y003076D03*
X029569Y003063D03*
X029569Y003050D03*
X029556Y002998D03*
X029556Y002985D03*
X029556Y002959D03*
X029556Y002946D03*
X029556Y002933D03*
X029556Y002920D03*
X029621Y003453D03*
X029621Y003466D03*
X029621Y003479D03*
X030076Y001308D03*
X030336Y001113D03*
X030531Y000970D03*
X030661Y000879D03*
D38*
X030641Y000892D03*
X030368Y001087D03*
X030108Y001282D03*
D39*
X030284Y001152D03*
X029556Y002972D03*
X029569Y003102D03*
X029621Y003492D03*
D40*
X029263Y001347D03*
D41*
X029127Y001542D03*
X031857Y001542D03*
X031857Y001477D03*
X031857Y001412D03*
X031857Y001347D03*
X031857Y004727D03*
X031857Y004857D03*
X031857Y004922D03*
D42*
X029257Y001360D03*
D43*
X031857Y001373D03*
X031857Y001360D03*
X031857Y001386D03*
X031857Y001399D03*
X031857Y001425D03*
X031857Y001438D03*
X031857Y001451D03*
X031857Y001464D03*
X031857Y001490D03*
X031857Y001503D03*
X031857Y001516D03*
X031857Y001529D03*
X031857Y001555D03*
X031857Y001568D03*
X031857Y001581D03*
X031857Y001594D03*
X031857Y004675D03*
X031857Y004688D03*
X031857Y004701D03*
X031857Y004714D03*
X031857Y004740D03*
X031857Y004870D03*
X031857Y004883D03*
X031857Y004896D03*
X031857Y004909D03*
D44*
X029244Y001373D03*
D45*
X029237Y001386D03*
D46*
X029224Y001399D03*
D47*
X029218Y001412D03*
D48*
X029205Y001425D03*
D49*
X029198Y001438D03*
D50*
X029185Y001451D03*
D51*
X029179Y001464D03*
D52*
X029172Y001477D03*
D53*
X029166Y001490D03*
D54*
X029153Y001503D03*
D55*
X029146Y001516D03*
D56*
X029133Y001529D03*
D57*
X029120Y001555D03*
D58*
X029107Y001568D03*
D59*
X029101Y001581D03*
D60*
X029088Y001594D03*
D61*
X028425Y001607D03*
X028425Y001672D03*
X028425Y001737D03*
X028425Y001802D03*
X028425Y001867D03*
X028425Y001932D03*
X028425Y001997D03*
X028425Y002062D03*
X028425Y002127D03*
X028425Y004012D03*
X028425Y004077D03*
X028425Y004142D03*
X028425Y004207D03*
X028425Y004272D03*
X028425Y004337D03*
X028425Y004402D03*
X028425Y004467D03*
X028425Y004532D03*
X028425Y004597D03*
X028425Y004662D03*
D62*
X032565Y004662D03*
X032565Y004597D03*
X032565Y004532D03*
X032565Y004467D03*
X032565Y004402D03*
X032565Y004337D03*
X032565Y004272D03*
X032565Y004207D03*
X032565Y004142D03*
X032565Y004077D03*
X032565Y004012D03*
X032565Y003947D03*
X032565Y003882D03*
X032565Y003817D03*
X032565Y003752D03*
X032565Y003427D03*
X032565Y003362D03*
X032565Y003297D03*
X032565Y003232D03*
X032565Y003167D03*
X032565Y003102D03*
X032565Y003037D03*
X032565Y002322D03*
X032565Y002257D03*
X032565Y002192D03*
X032565Y002127D03*
X032565Y002062D03*
X032565Y001997D03*
X032565Y001932D03*
X032565Y001867D03*
X032565Y001802D03*
X032565Y001737D03*
X032565Y001672D03*
X032565Y001607D03*
D63*
X028425Y001620D03*
X028425Y001633D03*
X028425Y001646D03*
X028425Y001659D03*
X028425Y001685D03*
X028425Y001698D03*
X028425Y001711D03*
X028425Y001724D03*
X028425Y001750D03*
X028425Y001763D03*
X028425Y001776D03*
X028425Y001789D03*
X028425Y001815D03*
X028425Y001828D03*
X028425Y001841D03*
X028425Y001854D03*
X028425Y001880D03*
X028425Y001893D03*
X028425Y001906D03*
X028425Y001919D03*
X028425Y001945D03*
X028425Y001958D03*
X028425Y001971D03*
X028425Y001984D03*
X028425Y002010D03*
X028425Y002023D03*
X028425Y002036D03*
X028425Y002049D03*
X028425Y002075D03*
X028425Y002088D03*
X028425Y002101D03*
X028425Y002114D03*
X028425Y002140D03*
X028425Y002153D03*
X028425Y002166D03*
X028425Y002179D03*
X028425Y003999D03*
X028425Y004025D03*
X028425Y004038D03*
X028425Y004051D03*
X028425Y004064D03*
X028425Y004090D03*
X028425Y004103D03*
X028425Y004116D03*
X028425Y004129D03*
X028425Y004155D03*
X028425Y004168D03*
X028425Y004181D03*
X028425Y004194D03*
X028425Y004220D03*
X028425Y004233D03*
X028425Y004246D03*
X028425Y004259D03*
X028425Y004285D03*
X028425Y004298D03*
X028425Y004311D03*
X028425Y004324D03*
X028425Y004350D03*
X028425Y004363D03*
X028425Y004376D03*
X028425Y004389D03*
X028425Y004415D03*
X028425Y004428D03*
X028425Y004441D03*
X028425Y004454D03*
X028425Y004480D03*
X028425Y004493D03*
X028425Y004506D03*
X028425Y004519D03*
X028425Y004545D03*
X028425Y004558D03*
X028425Y004571D03*
X028425Y004584D03*
X028425Y004610D03*
X028425Y004623D03*
X028425Y004636D03*
X028425Y004649D03*
D64*
X032565Y004649D03*
X032565Y004636D03*
X032565Y004623D03*
X032565Y004610D03*
X032565Y004584D03*
X032565Y004571D03*
X032565Y004558D03*
X032565Y004545D03*
X032565Y004519D03*
X032565Y004506D03*
X032565Y004493D03*
X032565Y004480D03*
X032565Y004454D03*
X032565Y004441D03*
X032565Y004428D03*
X032565Y004415D03*
X032565Y004389D03*
X032565Y004376D03*
X032565Y004363D03*
X032565Y004350D03*
X032565Y004324D03*
X032565Y004311D03*
X032565Y004298D03*
X032565Y004285D03*
X032565Y004259D03*
X032565Y004246D03*
X032565Y004233D03*
X032565Y004220D03*
X032565Y004194D03*
X032565Y004181D03*
X032565Y004168D03*
X032565Y004155D03*
X032565Y004129D03*
X032565Y004116D03*
X032565Y004103D03*
X032565Y004090D03*
X032565Y004064D03*
X032565Y004051D03*
X032565Y004038D03*
X032565Y004025D03*
X032565Y003999D03*
X032565Y003986D03*
X032565Y003973D03*
X032565Y003960D03*
X032565Y003934D03*
X032565Y003921D03*
X032565Y003908D03*
X032565Y003895D03*
X032565Y003869D03*
X032565Y003856D03*
X032565Y003843D03*
X032565Y003830D03*
X032565Y003804D03*
X032565Y003791D03*
X032565Y003778D03*
X032565Y003765D03*
X032565Y003739D03*
X032565Y003726D03*
X032565Y003440D03*
X032565Y003414D03*
X032565Y003401D03*
X032565Y003388D03*
X032565Y003375D03*
X032565Y003349D03*
X032565Y003336D03*
X032565Y003323D03*
X032565Y003310D03*
X032565Y003284D03*
X032565Y003271D03*
X032565Y003258D03*
X032565Y003245D03*
X032565Y003219D03*
X032565Y003206D03*
X032565Y003193D03*
X032565Y003180D03*
X032565Y003154D03*
X032565Y003141D03*
X032565Y003128D03*
X032565Y003115D03*
X032565Y003089D03*
X032565Y003076D03*
X032565Y003063D03*
X032565Y003050D03*
X032565Y003024D03*
X032565Y003011D03*
X032565Y002998D03*
X032565Y002985D03*
X032565Y002335D03*
X032565Y002309D03*
X032565Y002296D03*
X032565Y002283D03*
X032565Y002270D03*
X032565Y002244D03*
X032565Y002231D03*
X032565Y002218D03*
X032565Y002205D03*
X032565Y002179D03*
X032565Y002166D03*
X032565Y002153D03*
X032565Y002140D03*
X032565Y002114D03*
X032565Y002101D03*
X032565Y002088D03*
X032565Y002075D03*
X032565Y002049D03*
X032565Y002036D03*
X032565Y002023D03*
X032565Y002010D03*
X032565Y001984D03*
X032565Y001971D03*
X032565Y001958D03*
X032565Y001945D03*
X032565Y001919D03*
X032565Y001906D03*
X032565Y001893D03*
X032565Y001880D03*
X032565Y001854D03*
X032565Y001841D03*
X032565Y001828D03*
X032565Y001815D03*
X032565Y001789D03*
X032565Y001776D03*
X032565Y001763D03*
X032565Y001750D03*
X032565Y001724D03*
X032565Y001711D03*
X032565Y001698D03*
X032565Y001685D03*
X032565Y001659D03*
X032565Y001646D03*
X032565Y001633D03*
X032565Y001620D03*
D65*
X031967Y002153D03*
D66*
X031967Y002179D03*
X031226Y002894D03*
X031226Y002920D03*
X031213Y002959D03*
X031187Y003661D03*
X031655Y003700D03*
D67*
X029010Y002192D03*
D68*
X030537Y002192D03*
D69*
X031974Y002192D03*
D70*
X030661Y002270D03*
X029010Y002218D03*
X029010Y002205D03*
D71*
X030602Y002205D03*
D72*
X031967Y002205D03*
D73*
X030622Y002218D03*
D74*
X031967Y002218D03*
X031772Y003284D03*
D75*
X029016Y002361D03*
X029016Y002348D03*
X029016Y002335D03*
X029016Y002309D03*
X029016Y002296D03*
X029016Y002283D03*
X029016Y002270D03*
X029016Y002244D03*
X029016Y002231D03*
D76*
X030635Y002231D03*
D77*
X031967Y002231D03*
X032344Y002465D03*
X032344Y002803D03*
X032084Y002998D03*
X032344Y003700D03*
X029822Y003908D03*
X029822Y003921D03*
X029822Y003934D03*
X029822Y003960D03*
X029822Y003973D03*
D78*
X030648Y002244D03*
D79*
X031967Y002244D03*
X032331Y002829D03*
X032058Y003024D03*
X031837Y003219D03*
X029822Y003830D03*
X029822Y003843D03*
X029822Y003856D03*
X029822Y003869D03*
X028652Y003869D03*
X028652Y003856D03*
X028652Y003843D03*
X028652Y003830D03*
X028652Y003804D03*
X028652Y003791D03*
X028652Y003778D03*
X028652Y003765D03*
X028652Y003739D03*
X028652Y003726D03*
X028652Y003713D03*
X028652Y003700D03*
X028652Y003674D03*
X028652Y003661D03*
X028652Y003648D03*
X028652Y003635D03*
X028652Y003609D03*
X028652Y003596D03*
X028652Y003583D03*
X028652Y003570D03*
X028652Y003544D03*
X028652Y003531D03*
X028652Y003518D03*
X028652Y003505D03*
X028652Y003479D03*
X028652Y003466D03*
X028652Y003453D03*
X028652Y003440D03*
X028652Y003414D03*
X028652Y003401D03*
X028652Y003388D03*
X028652Y003375D03*
X028652Y003349D03*
X028652Y003336D03*
X028652Y003323D03*
X028652Y003310D03*
X028652Y003284D03*
X028652Y003271D03*
X028652Y003258D03*
X028652Y003245D03*
X028652Y003219D03*
X028652Y003206D03*
X028652Y003193D03*
X028652Y003180D03*
X028652Y003154D03*
X028652Y003141D03*
X028652Y003128D03*
X028652Y003115D03*
X028652Y003089D03*
X028652Y003076D03*
X028652Y003063D03*
X028652Y003050D03*
X028652Y003024D03*
X028652Y003011D03*
X028652Y002998D03*
X028652Y002985D03*
X028652Y002959D03*
X028652Y002946D03*
X028652Y002933D03*
X028652Y002920D03*
X028652Y002894D03*
X028652Y002881D03*
X028652Y002868D03*
X028652Y002855D03*
X028652Y002829D03*
X028652Y002816D03*
X028652Y002803D03*
X028652Y002790D03*
X028652Y002764D03*
X028652Y002751D03*
X028652Y002738D03*
X028652Y002725D03*
X028652Y002699D03*
X028652Y002686D03*
X028652Y002673D03*
X028652Y002660D03*
X028652Y002634D03*
X028652Y002621D03*
X028652Y002608D03*
X028652Y002595D03*
X028652Y002569D03*
X028652Y002556D03*
X028652Y003895D03*
X028652Y003908D03*
X028652Y003921D03*
X028652Y003934D03*
X028652Y003960D03*
X028652Y003973D03*
X028652Y003986D03*
D80*
X029016Y002322D03*
X029016Y002257D03*
D81*
X030654Y002257D03*
D82*
X031967Y002257D03*
D83*
X031967Y002270D03*
X032292Y002894D03*
X029822Y003570D03*
X029822Y003583D03*
D84*
X030667Y002283D03*
D85*
X031967Y002283D03*
D86*
X030674Y002296D03*
D87*
X031434Y002569D03*
X031434Y002595D03*
X031434Y002608D03*
X031434Y002621D03*
X031434Y002634D03*
X031434Y002660D03*
X031434Y002673D03*
X031434Y002686D03*
X031434Y002699D03*
X031434Y002725D03*
X031434Y002738D03*
X031434Y002751D03*
X031434Y002764D03*
X031434Y002790D03*
X031434Y002803D03*
X031434Y002816D03*
X031434Y002829D03*
X031434Y003453D03*
X031434Y003466D03*
X031434Y003479D03*
X031967Y002296D03*
D88*
X030680Y002309D03*
D89*
X031974Y002309D03*
X031441Y003440D03*
D90*
X030680Y002322D03*
D91*
X031967Y002322D03*
X031447Y003427D03*
D92*
X030687Y002348D03*
X030687Y002335D03*
D93*
X031967Y002335D03*
D94*
X032091Y002348D03*
X032091Y002361D03*
D95*
X030693Y002361D03*
X030693Y002374D03*
D96*
X029023Y002374D03*
X029023Y002400D03*
X029023Y002413D03*
X029023Y002426D03*
X029023Y002439D03*
X029023Y002465D03*
X029023Y002478D03*
X029023Y002491D03*
X029023Y002504D03*
D97*
X032084Y002374D03*
D98*
X029023Y002387D03*
X029023Y002452D03*
D99*
X030687Y002387D03*
D100*
X032084Y002387D03*
D101*
X030693Y002400D03*
X030693Y002413D03*
X030693Y002426D03*
D102*
X032078Y002426D03*
X032078Y002413D03*
X032078Y002400D03*
D103*
X031311Y002439D03*
D104*
X030927Y002452D03*
D105*
X032045Y003037D03*
X032331Y002452D03*
X029822Y003817D03*
X028652Y003817D03*
X028652Y003752D03*
X028652Y003687D03*
X028652Y003622D03*
X028652Y003557D03*
X028652Y003492D03*
X028652Y003427D03*
X028652Y003362D03*
X028652Y003297D03*
X028652Y003232D03*
X028652Y003167D03*
X028652Y003102D03*
X028652Y003037D03*
X028652Y002972D03*
X028652Y002907D03*
X028652Y002842D03*
X028652Y002777D03*
X028652Y002712D03*
X028652Y002647D03*
X028652Y002582D03*
X028652Y003882D03*
X028652Y003947D03*
D106*
X030914Y002465D03*
D107*
X030908Y002478D03*
X030908Y002491D03*
D108*
X032351Y002478D03*
X032351Y002790D03*
X032351Y003453D03*
X032351Y003466D03*
X032351Y003479D03*
X032351Y003505D03*
X032351Y003518D03*
X032351Y003531D03*
X032351Y003544D03*
X032351Y003570D03*
X032351Y003583D03*
X032351Y003596D03*
X032351Y003609D03*
X032351Y003635D03*
X032351Y003648D03*
X032351Y003661D03*
X032351Y003674D03*
X029829Y003986D03*
D109*
X032097Y002985D03*
X032357Y002764D03*
X032357Y002751D03*
X032357Y002738D03*
X032357Y002504D03*
X032357Y002491D03*
D110*
X031454Y003414D03*
X031935Y003843D03*
X030830Y003908D03*
X030388Y002504D03*
D111*
X031402Y002504D03*
X031467Y003388D03*
X031935Y003830D03*
D112*
X029569Y002517D03*
D113*
X031415Y002517D03*
X032234Y002972D03*
D114*
X032364Y002712D03*
X032364Y002647D03*
X032364Y002582D03*
X032364Y002517D03*
D115*
X029569Y002530D03*
X029569Y002543D03*
D116*
X030823Y003180D03*
X031421Y002530D03*
X031941Y003856D03*
D117*
X031935Y003960D03*
X032364Y002725D03*
X032364Y002699D03*
X032364Y002686D03*
X032364Y002673D03*
X032364Y002660D03*
X032364Y002634D03*
X032364Y002621D03*
X032364Y002608D03*
X032364Y002595D03*
X032364Y002569D03*
X032364Y002556D03*
X032364Y002543D03*
X032364Y002530D03*
D118*
X032247Y002959D03*
X031428Y002556D03*
X031428Y002543D03*
X030817Y003141D03*
X030817Y003921D03*
X031935Y003869D03*
D119*
X030069Y002608D03*
X030069Y002595D03*
X030069Y002569D03*
X030069Y002556D03*
D120*
X030069Y002582D03*
D121*
X031434Y002582D03*
X031434Y002647D03*
X031434Y002712D03*
X031434Y002777D03*
D122*
X030901Y003011D03*
X029835Y002699D03*
X029835Y002686D03*
X029835Y002673D03*
X029835Y002660D03*
X029835Y002634D03*
X029835Y002621D03*
D123*
X030609Y002621D03*
X030609Y002634D03*
X030609Y002660D03*
X030609Y002673D03*
X030609Y002686D03*
X030609Y002699D03*
X030609Y002725D03*
X030609Y002738D03*
X030609Y002751D03*
X030609Y002764D03*
X030609Y002790D03*
X030609Y002803D03*
X030609Y002816D03*
X030609Y002829D03*
X030609Y002855D03*
X030609Y002868D03*
X030609Y002881D03*
X030609Y002894D03*
X030609Y002920D03*
X030609Y002933D03*
X030609Y002946D03*
X030609Y002959D03*
X030609Y002985D03*
X030609Y002998D03*
X030609Y003284D03*
X030609Y003310D03*
X030609Y003323D03*
X030609Y003336D03*
X030609Y003349D03*
X030609Y003375D03*
X030609Y003388D03*
X030609Y003401D03*
X030609Y003414D03*
X030609Y003440D03*
X030609Y003453D03*
X030609Y003466D03*
X030609Y003479D03*
X030609Y003505D03*
X030609Y003518D03*
X030609Y003531D03*
X030609Y003544D03*
X030609Y003570D03*
X030609Y003583D03*
X030609Y003596D03*
X030609Y003609D03*
X030609Y003635D03*
X030609Y003648D03*
X030609Y003661D03*
X030609Y003674D03*
X031233Y002881D03*
X031233Y002868D03*
X031233Y002855D03*
X031662Y003713D03*
D124*
X029835Y002647D03*
D125*
X030609Y002647D03*
X030609Y002712D03*
X030609Y002777D03*
X030609Y002842D03*
X030609Y002907D03*
X030609Y002972D03*
X031207Y002972D03*
X031233Y002842D03*
X030609Y003297D03*
X030609Y003362D03*
X030609Y003427D03*
X030609Y003492D03*
X030609Y003557D03*
X030609Y003622D03*
D126*
X030895Y003687D03*
X030895Y003037D03*
X029829Y002712D03*
D127*
X029835Y002725D03*
X029835Y002738D03*
X029835Y002751D03*
X029835Y002764D03*
X030888Y003050D03*
X030888Y003713D03*
X030888Y003726D03*
X030888Y003739D03*
D128*
X030888Y003752D03*
X029835Y002777D03*
D129*
X032357Y002777D03*
D130*
X029829Y002790D03*
X029829Y002803D03*
D131*
X029835Y002816D03*
X029835Y002829D03*
X030875Y003076D03*
X030875Y003245D03*
X030875Y003791D03*
X030875Y003804D03*
D132*
X029829Y003895D03*
X032338Y003713D03*
X032338Y002816D03*
D133*
X030128Y002842D03*
X030115Y002907D03*
X030102Y003037D03*
X029582Y003167D03*
X029608Y003362D03*
X029543Y002907D03*
X029543Y002842D03*
D134*
X032325Y002842D03*
D135*
X032318Y002855D03*
X032006Y003076D03*
X031876Y003180D03*
D136*
X031922Y003141D03*
X031935Y003128D03*
X031987Y003089D03*
X032312Y002868D03*
D137*
X032299Y002881D03*
X031935Y003921D03*
X029829Y003635D03*
X029829Y003609D03*
X029829Y003596D03*
D138*
X031226Y002907D03*
D139*
X032279Y002907D03*
D140*
X032273Y002920D03*
D141*
X031220Y002933D03*
X031220Y002946D03*
X031935Y003999D03*
D142*
X032260Y002933D03*
D143*
X032253Y002946D03*
X031421Y003609D03*
X031421Y003635D03*
D144*
X030069Y003284D03*
X030069Y003271D03*
X030069Y003258D03*
X030069Y003245D03*
X030095Y003089D03*
X030095Y003076D03*
X030095Y003063D03*
X030095Y003050D03*
X030108Y002959D03*
X029575Y003115D03*
X029575Y003128D03*
X029575Y003141D03*
X029588Y003206D03*
X029588Y003219D03*
X029588Y003245D03*
X029601Y003310D03*
X029601Y003323D03*
X029601Y003336D03*
X029601Y003349D03*
X029614Y003401D03*
X029614Y003414D03*
X029614Y003440D03*
D145*
X029614Y003427D03*
X029601Y003297D03*
X029588Y003232D03*
X030069Y003297D03*
X030095Y003102D03*
X030108Y002972D03*
D146*
X031200Y002985D03*
X031174Y003674D03*
D147*
X031161Y002998D03*
D148*
X030082Y003141D03*
X030082Y003154D03*
X030082Y003180D03*
X030082Y003193D03*
X030082Y003206D03*
X029562Y003024D03*
X029562Y003011D03*
X029627Y003505D03*
X029627Y003518D03*
X029627Y003531D03*
X029627Y003544D03*
D149*
X031811Y003245D03*
X032071Y003011D03*
D150*
X030895Y003024D03*
X030895Y003700D03*
D151*
X030082Y003167D03*
X029562Y003037D03*
D152*
X029829Y003791D03*
X029829Y003804D03*
X031857Y003206D03*
X032026Y003050D03*
D153*
X030882Y003063D03*
X030882Y003258D03*
X030882Y003271D03*
X030882Y003765D03*
X030882Y003778D03*
D154*
X030745Y003973D03*
X029822Y003778D03*
X029822Y003765D03*
X029822Y003739D03*
X032019Y003063D03*
D155*
X030869Y003089D03*
X030869Y003830D03*
D156*
X031486Y003362D03*
X030862Y003102D03*
D157*
X029829Y003687D03*
X031974Y003102D03*
D158*
X030849Y003115D03*
X030849Y003206D03*
X030849Y003869D03*
D159*
X029829Y003726D03*
X029829Y003713D03*
X029829Y003700D03*
X031909Y003154D03*
X031961Y003115D03*
D160*
X031460Y003401D03*
X030836Y003193D03*
X030836Y003128D03*
X030836Y003895D03*
D161*
X030797Y003154D03*
D162*
X030797Y003167D03*
D163*
X031889Y003167D03*
X029822Y003752D03*
D164*
X031870Y003193D03*
X031935Y003934D03*
D165*
X030037Y003544D03*
X030050Y003466D03*
X030050Y003453D03*
X030050Y003440D03*
X030050Y003414D03*
X030050Y003401D03*
X030050Y003388D03*
X030063Y003375D03*
X030063Y003349D03*
X030063Y003336D03*
X030063Y003323D03*
X030063Y003310D03*
X030076Y003219D03*
D166*
X030862Y003219D03*
X030862Y003843D03*
X031941Y003778D03*
D167*
X030050Y003427D03*
X030063Y003362D03*
X030076Y003232D03*
D168*
X030869Y003232D03*
X030869Y003817D03*
D169*
X029829Y003882D03*
X031831Y003232D03*
D170*
X031805Y003258D03*
D171*
X031785Y003271D03*
D172*
X031161Y003284D03*
D173*
X031181Y003297D03*
X031649Y003687D03*
D174*
X031766Y003297D03*
D175*
X031649Y003674D03*
X031194Y003648D03*
X031194Y003310D03*
D176*
X031746Y003310D03*
D177*
X031740Y003323D03*
X031935Y003973D03*
D178*
X031727Y003336D03*
D179*
X031486Y003349D03*
X031928Y003726D03*
D180*
X031473Y003375D03*
D181*
X030043Y003492D03*
D182*
X031428Y003492D03*
X031428Y003557D03*
D183*
X032351Y003557D03*
X032351Y003492D03*
X032351Y003622D03*
D184*
X031428Y003596D03*
X031428Y003583D03*
X031428Y003570D03*
X031428Y003544D03*
X031428Y003531D03*
X031428Y003518D03*
X031428Y003505D03*
X030804Y003934D03*
D185*
X029829Y003557D03*
D186*
X029829Y003622D03*
D187*
X031421Y003622D03*
D188*
X029822Y003648D03*
X029822Y003661D03*
X029822Y003674D03*
D189*
X029822Y003947D03*
X032344Y003687D03*
D190*
X031935Y003739D03*
X031935Y003765D03*
D191*
X031935Y003752D03*
D192*
X031935Y003791D03*
X031935Y003804D03*
D193*
X031941Y003817D03*
D194*
X030856Y003856D03*
D195*
X030843Y003882D03*
D196*
X031935Y003882D03*
D197*
X031935Y003895D03*
D198*
X031935Y003908D03*
D199*
X030791Y003947D03*
D200*
X031935Y003947D03*
D201*
X030771Y003960D03*
D202*
X030687Y003986D03*
D203*
X031935Y003986D03*
D204*
X031935Y004012D03*
D205*
X031928Y004025D03*
D206*
X029055Y004675D03*
X029055Y004688D03*
X029055Y004701D03*
X029055Y004714D03*
X029055Y004740D03*
X029055Y004870D03*
X029055Y004883D03*
X029055Y004896D03*
X029055Y004909D03*
D207*
X029055Y004922D03*
X029055Y004857D03*
X029055Y004727D03*
D208*
X030492Y004753D03*
X030492Y004766D03*
X030492Y004779D03*
X030492Y004805D03*
X030492Y004818D03*
X030492Y004831D03*
X030492Y004844D03*
D209*
X030492Y004792D03*
M02*
