G75*
G70*
%OFA0B0*%
%FSLAX24Y24*%
%IPPOS*%
%LPD*%
%AMOC8*
5,1,8,0,0,1.08239X$1,22.5*
%
%ADD10C,0.0001*%
%ADD11R,0.0394X0.0315*%
%ADD12R,0.0276X0.0591*%
%ADD13C,0.0000*%
%ADD14R,0.0472X0.1260*%
%ADD15R,0.0472X0.0472*%
D10*
X001323Y000141D02*
X032622Y000141D01*
X032688Y000143D01*
X032754Y000148D01*
X032820Y000158D01*
X032885Y000171D01*
X032949Y000187D01*
X033012Y000207D01*
X033074Y000231D01*
X033134Y000258D01*
X033193Y000288D01*
X033250Y000322D01*
X033305Y000359D01*
X033358Y000399D01*
X033409Y000441D01*
X033457Y000487D01*
X033503Y000535D01*
X033545Y000586D01*
X033585Y000639D01*
X033622Y000694D01*
X033656Y000751D01*
X033686Y000810D01*
X033713Y000870D01*
X033737Y000932D01*
X033757Y000995D01*
X033773Y001059D01*
X033786Y001124D01*
X033796Y001190D01*
X033801Y001256D01*
X033803Y001322D01*
X033803Y020220D01*
X033801Y020286D01*
X033796Y020352D01*
X033786Y020418D01*
X033773Y020483D01*
X033757Y020547D01*
X033737Y020610D01*
X033713Y020672D01*
X033686Y020732D01*
X033656Y020791D01*
X033622Y020848D01*
X033585Y020903D01*
X033545Y020956D01*
X033503Y021007D01*
X033457Y021055D01*
X033409Y021101D01*
X033358Y021143D01*
X033305Y021183D01*
X033250Y021220D01*
X033193Y021254D01*
X033134Y021284D01*
X033074Y021311D01*
X033012Y021335D01*
X032949Y021355D01*
X032885Y021371D01*
X032820Y021384D01*
X032754Y021394D01*
X032688Y021399D01*
X032622Y021401D01*
X001323Y021401D01*
X001257Y021399D01*
X001191Y021394D01*
X001125Y021384D01*
X001060Y021371D01*
X000996Y021355D01*
X000933Y021335D01*
X000871Y021311D01*
X000811Y021284D01*
X000752Y021254D01*
X000695Y021220D01*
X000640Y021183D01*
X000587Y021143D01*
X000536Y021101D01*
X000488Y021055D01*
X000442Y021007D01*
X000400Y020956D01*
X000360Y020903D01*
X000323Y020848D01*
X000289Y020791D01*
X000259Y020732D01*
X000232Y020672D01*
X000208Y020610D01*
X000188Y020547D01*
X000172Y020483D01*
X000159Y020418D01*
X000149Y020352D01*
X000144Y020286D01*
X000142Y020220D01*
X000142Y001322D01*
X000144Y001256D01*
X000149Y001190D01*
X000159Y001124D01*
X000172Y001059D01*
X000188Y000995D01*
X000208Y000932D01*
X000232Y000870D01*
X000259Y000810D01*
X000289Y000751D01*
X000323Y000694D01*
X000360Y000639D01*
X000400Y000586D01*
X000442Y000535D01*
X000488Y000487D01*
X000536Y000441D01*
X000587Y000399D01*
X000640Y000359D01*
X000695Y000322D01*
X000752Y000288D01*
X000811Y000258D01*
X000871Y000231D01*
X000933Y000207D01*
X000996Y000187D01*
X001060Y000171D01*
X001125Y000158D01*
X001191Y000148D01*
X001257Y000143D01*
X001323Y000141D01*
D11*
X005284Y000988D03*
X005284Y001854D03*
X008118Y001854D03*
X008644Y001854D03*
X008644Y000988D03*
X008118Y000988D03*
X011478Y000988D03*
X011478Y001854D03*
D12*
X010947Y002110D03*
X009766Y002110D03*
X009175Y002110D03*
X007587Y002110D03*
X006406Y002110D03*
X005815Y002110D03*
D13*
X005934Y001421D02*
X005936Y001447D01*
X005942Y001473D01*
X005952Y001498D01*
X005965Y001521D01*
X005981Y001541D01*
X006001Y001559D01*
X006023Y001574D01*
X006046Y001586D01*
X006072Y001594D01*
X006098Y001598D01*
X006124Y001598D01*
X006150Y001594D01*
X006176Y001586D01*
X006200Y001574D01*
X006221Y001559D01*
X006241Y001541D01*
X006257Y001521D01*
X006270Y001498D01*
X006280Y001473D01*
X006286Y001447D01*
X006288Y001421D01*
X006286Y001395D01*
X006280Y001369D01*
X006270Y001344D01*
X006257Y001321D01*
X006241Y001301D01*
X006221Y001283D01*
X006199Y001268D01*
X006176Y001256D01*
X006150Y001248D01*
X006124Y001244D01*
X006098Y001244D01*
X006072Y001248D01*
X006046Y001256D01*
X006022Y001268D01*
X006001Y001283D01*
X005981Y001301D01*
X005965Y001321D01*
X005952Y001344D01*
X005942Y001369D01*
X005936Y001395D01*
X005934Y001421D01*
X007115Y001421D02*
X007117Y001447D01*
X007123Y001473D01*
X007133Y001498D01*
X007146Y001521D01*
X007162Y001541D01*
X007182Y001559D01*
X007204Y001574D01*
X007227Y001586D01*
X007253Y001594D01*
X007279Y001598D01*
X007305Y001598D01*
X007331Y001594D01*
X007357Y001586D01*
X007381Y001574D01*
X007402Y001559D01*
X007422Y001541D01*
X007438Y001521D01*
X007451Y001498D01*
X007461Y001473D01*
X007467Y001447D01*
X007469Y001421D01*
X007467Y001395D01*
X007461Y001369D01*
X007451Y001344D01*
X007438Y001321D01*
X007422Y001301D01*
X007402Y001283D01*
X007380Y001268D01*
X007357Y001256D01*
X007331Y001248D01*
X007305Y001244D01*
X007279Y001244D01*
X007253Y001248D01*
X007227Y001256D01*
X007203Y001268D01*
X007182Y001283D01*
X007162Y001301D01*
X007146Y001321D01*
X007133Y001344D01*
X007123Y001369D01*
X007117Y001395D01*
X007115Y001421D01*
X009294Y001421D02*
X009296Y001447D01*
X009302Y001473D01*
X009312Y001498D01*
X009325Y001521D01*
X009341Y001541D01*
X009361Y001559D01*
X009383Y001574D01*
X009406Y001586D01*
X009432Y001594D01*
X009458Y001598D01*
X009484Y001598D01*
X009510Y001594D01*
X009536Y001586D01*
X009560Y001574D01*
X009581Y001559D01*
X009601Y001541D01*
X009617Y001521D01*
X009630Y001498D01*
X009640Y001473D01*
X009646Y001447D01*
X009648Y001421D01*
X009646Y001395D01*
X009640Y001369D01*
X009630Y001344D01*
X009617Y001321D01*
X009601Y001301D01*
X009581Y001283D01*
X009559Y001268D01*
X009536Y001256D01*
X009510Y001248D01*
X009484Y001244D01*
X009458Y001244D01*
X009432Y001248D01*
X009406Y001256D01*
X009382Y001268D01*
X009361Y001283D01*
X009341Y001301D01*
X009325Y001321D01*
X009312Y001344D01*
X009302Y001369D01*
X009296Y001395D01*
X009294Y001421D01*
X010475Y001421D02*
X010477Y001447D01*
X010483Y001473D01*
X010493Y001498D01*
X010506Y001521D01*
X010522Y001541D01*
X010542Y001559D01*
X010564Y001574D01*
X010587Y001586D01*
X010613Y001594D01*
X010639Y001598D01*
X010665Y001598D01*
X010691Y001594D01*
X010717Y001586D01*
X010741Y001574D01*
X010762Y001559D01*
X010782Y001541D01*
X010798Y001521D01*
X010811Y001498D01*
X010821Y001473D01*
X010827Y001447D01*
X010829Y001421D01*
X010827Y001395D01*
X010821Y001369D01*
X010811Y001344D01*
X010798Y001321D01*
X010782Y001301D01*
X010762Y001283D01*
X010740Y001268D01*
X010717Y001256D01*
X010691Y001248D01*
X010665Y001244D01*
X010639Y001244D01*
X010613Y001248D01*
X010587Y001256D01*
X010563Y001268D01*
X010542Y001283D01*
X010522Y001301D01*
X010506Y001321D01*
X010493Y001344D01*
X010483Y001369D01*
X010477Y001395D01*
X010475Y001421D01*
X027204Y018621D02*
X027206Y018648D01*
X027212Y018675D01*
X027221Y018701D01*
X027234Y018725D01*
X027250Y018748D01*
X027269Y018767D01*
X027291Y018784D01*
X027315Y018798D01*
X027340Y018808D01*
X027367Y018815D01*
X027394Y018818D01*
X027422Y018817D01*
X027449Y018812D01*
X027475Y018804D01*
X027499Y018792D01*
X027522Y018776D01*
X027543Y018758D01*
X027560Y018737D01*
X027575Y018713D01*
X027586Y018688D01*
X027594Y018662D01*
X027598Y018635D01*
X027598Y018607D01*
X027594Y018580D01*
X027586Y018554D01*
X027575Y018529D01*
X027560Y018505D01*
X027543Y018484D01*
X027522Y018466D01*
X027500Y018450D01*
X027475Y018438D01*
X027449Y018430D01*
X027422Y018425D01*
X027394Y018424D01*
X027367Y018427D01*
X027340Y018434D01*
X027315Y018444D01*
X027291Y018458D01*
X027269Y018475D01*
X027250Y018494D01*
X027234Y018517D01*
X027221Y018541D01*
X027212Y018567D01*
X027206Y018594D01*
X027204Y018621D01*
X031404Y018621D02*
X031406Y018648D01*
X031412Y018675D01*
X031421Y018701D01*
X031434Y018725D01*
X031450Y018748D01*
X031469Y018767D01*
X031491Y018784D01*
X031515Y018798D01*
X031540Y018808D01*
X031567Y018815D01*
X031594Y018818D01*
X031622Y018817D01*
X031649Y018812D01*
X031675Y018804D01*
X031699Y018792D01*
X031722Y018776D01*
X031743Y018758D01*
X031760Y018737D01*
X031775Y018713D01*
X031786Y018688D01*
X031794Y018662D01*
X031798Y018635D01*
X031798Y018607D01*
X031794Y018580D01*
X031786Y018554D01*
X031775Y018529D01*
X031760Y018505D01*
X031743Y018484D01*
X031722Y018466D01*
X031700Y018450D01*
X031675Y018438D01*
X031649Y018430D01*
X031622Y018425D01*
X031594Y018424D01*
X031567Y018427D01*
X031540Y018434D01*
X031515Y018444D01*
X031491Y018458D01*
X031469Y018475D01*
X031450Y018494D01*
X031434Y018517D01*
X031421Y018541D01*
X031412Y018567D01*
X031406Y018594D01*
X031404Y018621D01*
D14*
X031104Y017803D03*
X032679Y017803D03*
X032679Y020480D03*
X031104Y020480D03*
X027929Y020480D03*
X026354Y020480D03*
X023179Y020480D03*
X021604Y020480D03*
X018429Y020480D03*
X016854Y020480D03*
X013679Y020480D03*
X012104Y020480D03*
X008929Y020480D03*
X007354Y020480D03*
X007354Y017803D03*
X008929Y017803D03*
X012104Y017803D03*
X013679Y017803D03*
X016854Y017803D03*
X018429Y017803D03*
X021604Y017803D03*
X023179Y017803D03*
X026354Y017803D03*
X027929Y017803D03*
X027929Y014980D03*
X026354Y014980D03*
X023179Y014980D03*
X021604Y014980D03*
X018429Y014980D03*
X016854Y014980D03*
X013679Y014980D03*
X012104Y014980D03*
X008929Y014980D03*
X007354Y014980D03*
X007354Y012303D03*
X008929Y012303D03*
X012104Y012303D03*
X013679Y012303D03*
X016854Y012303D03*
X018429Y012303D03*
X021604Y012303D03*
X023179Y012303D03*
X026354Y012303D03*
X027929Y012303D03*
X031104Y012303D03*
X032679Y012303D03*
X032679Y014980D03*
X031104Y014980D03*
X031104Y009480D03*
X032679Y009480D03*
X032679Y006803D03*
X031104Y006803D03*
X027929Y006803D03*
X026354Y006803D03*
X023179Y006803D03*
X021604Y006803D03*
X018429Y006803D03*
X016854Y006803D03*
X013679Y006803D03*
X012104Y006803D03*
X008929Y006803D03*
X007354Y006803D03*
X007354Y009480D03*
X008929Y009480D03*
X012104Y009480D03*
X013679Y009480D03*
X016854Y009480D03*
X018429Y009480D03*
X021604Y009480D03*
X023179Y009480D03*
X026354Y009480D03*
X027929Y009480D03*
X027929Y003980D03*
X026354Y003980D03*
X023179Y003980D03*
X021604Y003980D03*
X018429Y003980D03*
X016854Y003980D03*
X013679Y003980D03*
X012104Y003980D03*
X012104Y001303D03*
X013679Y001303D03*
X016854Y001303D03*
X018429Y001303D03*
X021604Y001303D03*
X023179Y001303D03*
X026354Y001303D03*
X027929Y001303D03*
X031104Y001303D03*
X032679Y001303D03*
X032679Y003980D03*
X031104Y003980D03*
D15*
X006861Y004528D03*
X006061Y004528D03*
X005261Y004528D03*
X005261Y005354D03*
X006061Y005354D03*
X006861Y005354D03*
M02*
